<?xml version="1.0" standalone="no"?>
<!DOCTYPE svg PUBLIC "-//W3C//DTD SVG 1.1//EN" "http://www.w3.org/Graphics/SVG/1.1/DTD/svg11.dtd" >
<svg xmlns="http://www.w3.org/2000/svg">
<metadata>
This is a custom SVG webfont generated by Font Squirrel.
Copyright   : c19972003 Yuji Adachi
</metadata>
<defs>
<font id="ArcadeInterlacedRegular" horiz-adv-x="2004" >
<font-face units-per-em="2048" ascent="1797" descent="-251" />
<missing-glyph horiz-adv-x="500" />
<glyph unicode=" " />
<glyph unicode="!" d="M501 94q0 -94 30 -94h439q32 0 32 94t-32 94h-439q-30 0 -30 -94zM501 345q0 -94 30 -94h439q32 0 32 94t-32 94h-439q-30 0 -30 -94zM501 846q0 -94 30 -94h439q32 0 32 94t-32 94h-439q-30 0 -30 -94zM501 1097q0 -94 30 -95h439q32 0 32 95q0 94 -32 94h-439 q-30 0 -30 -94zM501 1347q0 -94 30 -94h439q32 0 32 94t-32 94h-439q-30 0 -30 -94zM501 1598q0 -94 30 -94h439q32 0 32 94t-32 94h-439q-30 0 -30 -94z" />
<glyph unicode="&#x22;" d="M251 846q0 -94 30 -94h188q32 0 32 94t-32 94h-188q-30 0 -30 -94zM251 1347q0 -94 30 -94h439q32 0 32 94t-32 94h-439q-30 0 -30 -94zM251 1598q0 -94 30 -94h439q32 0 32 94t-32 94h-439q-30 0 -30 -94zM501 1097q0 -94 30 -95h189q32 0 32 95q0 94 -32 94h-189 q-30 0 -30 -94zM1002 846q0 -94 30 -94h189q32 0 32 94t-32 94h-189q-30 0 -30 -94zM1002 1347q0 -94 30 -94h439q33 0 33 94t-33 94h-439q-30 0 -30 -94zM1002 1598q0 -94 30 -94h439q33 0 33 94t-33 94h-439q-30 0 -30 -94zM1253 1097q0 -94 30 -95h188q33 0 33 95 q0 94 -33 94h-188q-30 0 -30 -94z" />
<glyph unicode="#" d="M251 595q0 -94 30 -94h1190q33 0 33 94t-33 95h-1190q-30 -1 -30 -95zM251 1097q0 -94 30 -95h1190q33 0 33 95q0 94 -33 94h-1190q-30 0 -30 -94zM501 345q0 -94 30 -94h189q32 0 32 94t-32 94h-189q-30 0 -30 -94zM501 846q0 -94 30 -94h189q32 0 32 94t-32 94h-189 q-30 0 -30 -94zM501 1347q0 -94 30 -94h189q32 0 32 94t-32 94h-189q-30 0 -30 -94zM1002 345q0 -94 30 -94h189q32 0 32 94t-32 94h-189q-30 0 -30 -94zM1002 846q0 -94 30 -94h189q32 0 32 94t-32 94h-189q-30 0 -30 -94zM1002 1347q0 -94 30 -94h189q32 0 32 94t-32 94 h-189q-30 0 -30 -94z" />
<glyph unicode="$" d="M251 345q0 -94 30 -94h940q32 0 32 94t-32 94h-940q-30 0 -30 -94zM251 1097q0 -94 30 -95h188q32 0 32 95q0 94 -32 94h-188q-30 0 -30 -94zM501 846q0 -94 30 -94h690q32 0 32 94t-32 94h-690q-30 0 -30 -94zM501 1347q0 -94 30 -94h940q33 0 33 94t-33 94h-940 q-30 0 -30 -94zM752 94q0 -94 30 -94h188q32 0 32 94t-32 94h-188q-30 0 -30 -94zM752 595q0 -94 30 -94h188q32 0 32 94t-32 95h-188q-30 -1 -30 -95zM752 1097q0 -94 30 -95h188q32 0 32 95q0 94 -32 94h-188q-30 0 -30 -94zM752 1598q0 -94 30 -94h188q32 0 32 94t-32 94 h-188q-30 0 -30 -94zM1253 595q0 -94 30 -94h188q33 0 33 94t-33 95h-188q-30 -1 -30 -95z" />
<glyph unicode="%" d="M0 94q0 -94 30 -94h189q32 0 32 94t-32 94h-189q-30 0 -30 -94zM0 1347q0 -94 30 -94h189q32 0 32 94t-32 94h-189q-30 0 -30 -94zM251 345q0 -94 30 -94h188q32 0 32 94t-32 94h-188q-30 0 -30 -94zM251 1097q0 -94 30 -95h188q32 0 32 95q0 94 -32 94h-188 q-30 0 -30 -94zM251 1598q0 -94 30 -94h188q32 0 32 94t-32 94h-188q-30 0 -30 -94zM501 595q0 -94 30 -94h189q32 0 32 94t-32 95h-189q-30 -1 -30 -95zM501 1347q0 -94 30 -94h189q32 0 32 94t-32 94h-189q-30 0 -30 -94zM752 846q0 -94 30 -94h188q32 0 32 94t-32 94 h-188q-30 0 -30 -94zM1002 345q0 -94 30 -94h189q32 0 32 94t-32 94h-189q-30 0 -30 -94zM1002 1097q0 -94 30 -95h189q32 0 32 95q0 94 -32 94h-189q-30 0 -30 -94zM1253 94q0 -94 30 -94h188q33 0 33 94t-33 94h-188q-30 0 -30 -94zM1253 595q0 -94 30 -94h188q33 0 33 94 t-33 95h-188q-30 -1 -30 -95zM1253 1347q0 -94 30 -94h188q33 0 33 94t-33 94h-188q-30 0 -30 -94zM1504 345q0 -94 30 -94h188q32 0 32 94t-32 94h-188q-30 0 -30 -94zM1504 1598q0 -94 30 -94h188q32 0 32 94t-32 94h-188q-30 0 -30 -94z" />
<glyph unicode="&#x26;" d="M0 345q0 -94 30 -94h189q32 0 32 94t-32 94h-189q-30 0 -30 -94zM0 595q0 -94 30 -94h189q32 0 32 94t-32 95h-189q-30 -1 -30 -95zM0 1097q0 -94 30 -95h690q32 0 32 95q0 94 -32 94h-690q-30 0 -30 -94zM0 1347q0 -94 30 -94h439q32 0 32 94t-32 94h-439q-30 0 -30 -94 zM251 94q0 -94 30 -94h689q32 0 32 94t-32 94h-689q-30 0 -30 -94zM251 846q0 -94 30 -94h689q32 0 32 94t-32 94h-689q-30 0 -30 -94zM251 1598q0 -94 30 -94h689q32 0 32 94t-32 94h-689q-30 0 -30 -94zM752 595q0 -94 30 -94h940q32 0 32 94t-32 95h-940q-30 -1 -30 -95z M1002 345q0 -94 30 -94h439q33 0 33 94t-33 94h-439q-30 0 -30 -94zM1002 1097q0 -94 30 -95h189q32 0 32 95q0 94 -32 94h-189q-30 0 -30 -94zM1002 1347q0 -94 30 -94h189q32 0 32 94t-32 94h-189q-30 0 -30 -94zM1253 94q0 -94 30 -94h439q32 0 32 94t-32 94h-439 q-30 0 -30 -94z" />
<glyph unicode="'" d="M251 846q0 -94 30 -94h188q32 0 32 94t-32 94h-188q-30 0 -30 -94zM251 1347q0 -94 30 -94h439q32 0 32 94t-32 94h-439q-30 0 -30 -94zM251 1598q0 -94 30 -94h439q32 0 32 94t-32 94h-439q-30 0 -30 -94zM501 1097q0 -94 30 -95h189q32 0 32 95q0 94 -32 94h-189 q-30 0 -30 -94z" />
<glyph unicode="(" d="M251 595q0 -94 30 -94h439q32 0 32 94t-32 95h-439q-30 -1 -30 -95zM251 846q0 -94 30 -94h439q32 0 32 94t-32 94h-439q-30 0 -30 -94zM251 1097q0 -94 30 -95h439q32 0 32 95q0 94 -32 94h-439q-30 0 -30 -94zM501 345q0 -94 30 -94h439q32 0 32 94t-32 94h-439 q-30 0 -30 -94zM501 1347q0 -94 30 -94h439q32 0 32 94t-32 94h-439q-30 0 -30 -94zM752 94q0 -94 30 -94h439q32 0 32 94t-32 94h-439q-30 0 -30 -94zM752 1598q0 -94 30 -94h439q32 0 32 94t-32 94h-439q-30 0 -30 -94z" />
<glyph unicode=")" d="M501 94q0 -94 30 -94h439q32 0 32 94t-32 94h-439q-30 0 -30 -94zM501 1598q0 -94 30 -94h439q32 0 32 94t-32 94h-439q-30 0 -30 -94zM752 345q0 -94 30 -94h439q32 0 32 94t-32 94h-439q-30 0 -30 -94zM752 1347q0 -94 30 -94h439q32 0 32 94t-32 94h-439 q-30 0 -30 -94zM1002 595q0 -94 30 -94h439q33 0 33 94t-33 95h-439q-30 -1 -30 -95zM1002 846q0 -94 30 -94h439q33 0 33 94t-33 94h-439q-30 0 -30 -94zM1002 1097q0 -94 30 -95h439q33 0 33 95q0 94 -33 94h-439q-30 0 -30 -94z" />
<glyph unicode="*" d="M251 595q0 -94 30 -94h188q32 0 32 94t-32 95h-188q-30 -1 -30 -95zM251 1097q0 -94 30 -95h188q32 0 32 95q0 94 -32 94h-188q-30 0 -30 -94zM501 846q0 -94 30 -94h690q32 0 32 94t-32 94h-690q-30 0 -30 -94zM752 345q0 -94 30 -94h188q32 0 32 94t-32 94h-188 q-30 0 -30 -94zM752 595q0 -94 30 -94h188q32 0 32 94t-32 95h-188q-30 -1 -30 -95zM752 1097q0 -94 30 -95h188q32 0 32 95q0 94 -32 94h-188q-30 0 -30 -94zM752 1347q0 -94 30 -94h188q32 0 32 94t-32 94h-188q-30 0 -30 -94zM1253 595q0 -94 30 -94h188q33 0 33 94 t-33 95h-188q-30 -1 -30 -95zM1253 1097q0 -94 30 -95h188q33 0 33 95q0 94 -33 94h-188q-30 0 -30 -94z" />
<glyph unicode="+" d="M251 846q0 -94 30 -94h1190q33 0 33 94t-33 94h-1190q-30 0 -30 -94zM752 345q0 -94 30 -94h188q32 0 32 94t-32 94h-188q-30 0 -30 -94zM752 595q0 -94 30 -94h188q32 0 32 94t-32 95h-188q-30 -1 -30 -95zM752 1097q0 -94 30 -95h188q32 0 32 95q0 94 -32 94h-188 q-30 0 -30 -94zM752 1347q0 -94 30 -94h188q32 0 32 94t-32 94h-188q-30 0 -30 -94z" />
<glyph unicode="," d="M251 94q0 -94 30 -94h188q32 0 32 94t-32 94h-188q-30 0 -30 -94zM251 595q0 -94 30 -94h439q32 0 32 94t-32 95h-439q-30 -1 -30 -95zM251 846q0 -94 30 -94h439q32 0 32 94t-32 94h-439q-30 0 -30 -94zM501 345q0 -94 30 -94h189q32 0 32 94t-32 94h-189q-30 0 -30 -94 z" />
<glyph unicode="-" d="M251 846q0 -94 30 -94h1190q33 0 33 94t-33 94h-1190q-30 0 -30 -94z" />
<glyph unicode="." d="M251 94q0 -94 30 -94h439q32 0 32 94t-32 94h-439q-30 0 -30 -94zM251 345q0 -94 30 -94h439q32 0 32 94t-32 94h-439q-30 0 -30 -94z" />
<glyph unicode="/" d="M0 94q0 94 30 94h189q32 0 32 -94t-32 -94h-189q-30 0 -30 94zM251 345q0 94 30 94h188q32 0 32 -94t-32 -94h-188q-30 0 -30 94zM501 595q0 94 30 95h189q32 0 32 -95q0 -94 -32 -94h-189q-30 0 -30 94zM752 846q0 94 30 94h188q32 0 32 -94t-32 -94h-188q-30 0 -30 94z M1002 1097q0 94 30 94h189q32 0 32 -94t-32 -95h-189q-30 1 -30 95zM1253 1347q0 94 30 94h188q33 0 33 -94t-33 -94h-188q-30 0 -30 94zM1504 1598q0 94 30 94h188q32 0 32 -94t-32 -94h-188q-30 0 -30 94z" />
<glyph unicode="0" d="M0 595q0 -94 30 -94h439q32 0 32 94t-32 95h-439q-30 -1 -30 -95zM0 846q0 -94 30 -94h439q32 0 32 94t-32 94h-439q-30 0 -30 -94zM0 1097q0 -94 30 -95h439q32 0 32 95q0 94 -32 94h-439q-30 0 -30 -94zM251 345q0 -94 30 -94h439q32 0 32 94t-32 94h-439 q-30 0 -30 -94zM251 1347q0 -94 30 -94h188q32 0 32 94t-32 94h-188q-30 0 -30 -94zM501 94q0 -94 30 -94h690q32 0 32 94t-32 94h-690q-30 0 -30 -94zM501 1598q0 -94 30 -94h690q32 0 32 94t-32 94h-690q-30 0 -30 -94zM1002 1347q0 -94 30 -94h439q33 0 33 94t-33 94 h-439q-30 0 -30 -94zM1253 345q0 -94 30 -94h188q33 0 33 94t-33 94h-188q-30 0 -30 -94zM1253 595q0 -94 30 -94h439q32 0 32 94t-32 95h-439q-30 -1 -30 -95zM1253 846q0 -94 30 -94h439q32 0 32 94t-32 94h-439q-30 0 -30 -94zM1253 1097q0 -94 30 -95h439q32 0 32 95 q0 94 -32 94h-439q-30 0 -30 -94z" />
<glyph unicode="1" d="M251 94q0 -94 30 -94h1441q32 0 32 94t-32 94h-1441q-30 0 -30 -94zM501 1347q0 -94 30 -94h690q32 0 32 94t-32 94h-690q-30 0 -30 -94zM752 345q0 -94 30 -94h439q32 0 32 94t-32 94h-439q-30 0 -30 -94zM752 595q0 -94 30 -94h439q32 0 32 94t-32 95h-439 q-30 -1 -30 -95zM752 846q0 -94 30 -94h439q32 0 32 94t-32 94h-439q-30 0 -30 -94zM752 1097q0 -94 30 -95h439q32 0 32 95q0 94 -32 94h-439q-30 0 -30 -94zM752 1598q0 -94 30 -94h439q32 0 32 94t-32 94h-439q-30 0 -30 -94z" />
<glyph unicode="2" d="M0 94q0 -94 30 -94h1692q32 0 32 94t-32 94h-1692q-30 0 -30 -94zM0 345q0 -94 30 -94h690q32 0 32 94t-32 94h-690q-30 0 -30 -94zM0 1347q0 -94 30 -94h439q32 0 32 94t-32 94h-439q-30 0 -30 -94zM251 595q0 -94 30 -94h940q32 0 32 94t-32 95h-940q-30 -1 -30 -95z M251 1598q0 -94 30 -94h1190q33 0 33 94t-33 94h-1190q-30 0 -30 -94zM501 846q0 -94 30 -94h940q33 0 33 94t-33 94h-940q-30 0 -30 -94zM1002 1097q0 -94 30 -95h690q32 0 32 95q0 94 -32 94h-690q-30 0 -30 -94zM1253 1347q0 -94 30 -94h439q32 0 32 94t-32 94h-439 q-30 0 -30 -94z" />
<glyph unicode="3" d="M0 345q0 -94 30 -94h439q32 0 32 94t-32 94h-439q-30 0 -30 -94zM251 94q0 -94 30 -94h1190q33 0 33 94t-33 94h-1190q-30 0 -30 -94zM251 1598q0 -94 30 -94h1441q32 0 32 94t-32 94h-1441q-30 0 -30 -94zM501 846q0 -94 30 -94h940q33 0 33 94t-33 94h-940 q-30 0 -30 -94zM752 1097q0 -94 30 -95h439q32 0 32 95q0 94 -32 94h-439q-30 0 -30 -94zM1002 1347q0 -94 30 -94h439q33 0 33 94t-33 94h-439q-30 0 -30 -94zM1253 345q0 -94 30 -94h439q32 0 32 94t-32 94h-439q-30 0 -30 -94zM1253 595q0 -94 30 -94h439q32 0 32 94 t-32 95h-439q-30 -1 -30 -95z" />
<glyph unicode="4" d="M0 595q0 -94 30 -94h1692q32 0 32 94t-32 95h-1692q-30 -1 -30 -95zM0 846q0 -94 30 -94h439q32 0 32 94t-32 94h-439q-30 0 -30 -94zM251 1097q0 -94 30 -95h439q32 0 32 95q0 94 -32 94h-439q-30 0 -30 -94zM501 1347q0 -94 30 -94h940q33 0 33 94t-33 94h-940 q-30 0 -30 -94zM752 1598q0 -94 30 -94h689q33 0 33 94t-33 94h-689q-30 0 -30 -94zM1002 94q0 -94 30 -94h439q33 0 33 94t-33 94h-439q-30 0 -30 -94zM1002 345q0 -94 30 -94h439q33 0 33 94t-33 94h-439q-30 0 -30 -94zM1002 846q0 -94 30 -94h439q33 0 33 94t-33 94 h-439q-30 0 -30 -94zM1002 1097q0 -94 30 -95h439q33 0 33 95q0 94 -33 94h-439q-30 0 -30 -94z" />
<glyph unicode="5" d="M0 345q0 -94 30 -94h439q32 0 32 94t-32 94h-439q-30 0 -30 -94zM0 1097q0 -94 30 -95h1441q33 0 33 95q0 94 -33 94h-1441q-30 0 -30 -94zM0 1347q0 -94 30 -94h439q32 0 32 94t-32 94h-439q-30 0 -30 -94zM0 1598q0 -94 30 -94h1441q33 0 33 94t-33 94h-1441 q-30 0 -30 -94zM251 94q0 -94 30 -94h1190q33 0 33 94t-33 94h-1190q-30 0 -30 -94zM1253 345q0 -94 30 -94h439q32 0 32 94t-32 94h-439q-30 0 -30 -94zM1253 595q0 -94 30 -94h439q32 0 32 94t-32 95h-439q-30 -1 -30 -95zM1253 846q0 -94 30 -94h439q32 0 32 94t-32 94 h-439q-30 0 -30 -94z" />
<glyph unicode="6" d="M0 345q0 -94 30 -94h439q32 0 32 94t-32 94h-439q-30 0 -30 -94zM0 595q0 -94 30 -94h439q32 0 32 94t-32 95h-439q-30 -1 -30 -95zM0 846q0 -94 30 -94h1441q33 0 33 94t-33 94h-1441q-30 0 -30 -94zM0 1097q0 -94 30 -95h439q32 0 32 95q0 94 -32 94h-439 q-30 0 -30 -94zM251 94q0 -94 30 -94h1190q33 0 33 94t-33 94h-1190q-30 0 -30 -94zM251 1347q0 -94 30 -94h439q32 0 32 94t-32 94h-439q-30 0 -30 -94zM501 1598q0 -94 30 -94h940q33 0 33 94t-33 94h-940q-30 0 -30 -94zM1253 345q0 -94 30 -94h439q32 0 32 94t-32 94 h-439q-30 0 -30 -94zM1253 595q0 -94 30 -94h439q32 0 32 94t-32 95h-439q-30 -1 -30 -95z" />
<glyph unicode="7" d="M0 1347q0 -94 30 -94h439q32 0 32 94t-32 94h-439q-30 0 -30 -94zM0 1598q0 -94 30 -94h1692q32 0 32 94t-32 94h-1692q-30 0 -30 -94zM501 94q0 -94 30 -94h439q32 0 32 94t-32 94h-439q-30 0 -30 -94zM501 345q0 -94 30 -94h439q32 0 32 94t-32 94h-439q-30 0 -30 -94z M501 595q0 -94 30 -94h439q32 0 32 94t-32 95h-439q-30 -1 -30 -95zM752 846q0 -94 30 -94h439q32 0 32 94t-32 94h-439q-30 0 -30 -94zM1002 1097q0 -94 30 -95h439q33 0 33 95q0 94 -33 94h-439q-30 0 -30 -94zM1253 1347q0 -94 30 -94h439q32 0 32 94t-32 94h-439 q-30 0 -30 -94z" />
<glyph unicode="8" d="M0 345q0 -94 30 -94h189q32 0 32 94t-32 94h-189q-30 0 -30 -94zM0 595q0 -94 30 -94h189q32 0 32 94t-32 95h-189q-30 -1 -30 -95zM0 1097q0 -94 30 -95h690q32 0 32 95q0 94 -32 94h-690q-30 0 -30 -94zM0 1347q0 -94 30 -94h439q32 0 32 94t-32 94h-439q-30 0 -30 -94 zM251 94q0 -94 30 -94h1190q33 0 33 94t-33 94h-1190q-30 0 -30 -94zM251 846q0 -94 30 -94h940q32 0 32 94t-32 94h-940q-30 0 -30 -94zM251 1598q0 -94 30 -94h940q32 0 32 94t-32 94h-940q-30 0 -30 -94zM752 595q0 -94 30 -94h940q32 0 32 94t-32 95h-940 q-30 -1 -30 -95zM1253 345q0 -94 30 -94h439q32 0 32 94t-32 94h-439q-30 0 -30 -94zM1253 1097q0 -94 30 -95h188q33 0 33 95q0 94 -33 94h-188q-30 0 -30 -94zM1253 1347q0 -94 30 -94h188q33 0 33 94t-33 94h-188q-30 0 -30 -94z" />
<glyph unicode="9" d="M0 1097q0 -94 30 -95h439q32 0 32 95q0 94 -32 94h-439q-30 0 -30 -94zM0 1347q0 -94 30 -94h439q32 0 32 94t-32 94h-439q-30 0 -30 -94zM251 94q0 -94 30 -94h940q32 0 32 94t-32 94h-940q-30 0 -30 -94zM251 846q0 -94 30 -94h1441q32 0 32 94t-32 94h-1441 q-30 0 -30 -94zM251 1598q0 -94 30 -94h1190q33 0 33 94t-33 94h-1190q-30 0 -30 -94zM1002 345q0 -94 30 -94h439q33 0 33 94t-33 94h-439q-30 0 -30 -94zM1253 595q0 -94 30 -94h439q32 0 32 94t-32 95h-439q-30 -1 -30 -95zM1253 1097q0 -94 30 -95h439q32 0 32 95 q0 94 -32 94h-439q-30 0 -30 -94zM1253 1347q0 -94 30 -94h439q32 0 32 94t-32 94h-439q-30 0 -30 -94z" />
<glyph unicode=":" d="M251 94q0 -94 30 -94h439q32 0 32 94t-32 94h-439q-30 0 -30 -94zM251 345q0 -94 30 -94h439q32 0 32 94t-32 94h-439q-30 0 -30 -94zM251 1097q0 -94 30 -95h439q32 0 32 95q0 94 -32 94h-439q-30 0 -30 -94zM251 1347q0 -94 30 -94h439q32 0 32 94t-32 94h-439 q-30 0 -30 -94z" />
<glyph unicode=";" d="M251 94q0 -94 30 -94h188q32 0 32 94t-32 94h-188q-30 0 -30 -94zM251 595q0 -94 30 -94h439q32 0 32 94t-32 95h-439q-30 -1 -30 -95zM251 846q0 -94 30 -94h439q32 0 32 94t-32 94h-439q-30 0 -30 -94zM251 1347q0 -94 30 -94h439q32 0 32 94t-32 94h-439 q-30 0 -30 -94zM251 1598q0 -94 30 -94h439q32 0 32 94t-32 94h-439q-30 0 -30 -94zM501 345q0 -94 30 -94h189q32 0 32 94t-32 94h-189q-30 0 -30 -94z" />
<glyph unicode="&#x3c;" d="M251 846q0 -94 30 -94h439q32 0 32 94t-32 94h-439q-30 0 -30 -94zM501 595q0 -94 30 -94h439q32 0 32 94t-32 95h-439q-30 -1 -30 -95zM501 1097q0 -94 30 -95h439q32 0 32 95q0 94 -32 94h-439q-30 0 -30 -94zM752 345q0 -94 30 -94h439q32 0 32 94t-32 94h-439 q-30 0 -30 -94zM752 1347q0 -94 30 -94h439q32 0 32 94t-32 94h-439q-30 0 -30 -94z" />
<glyph unicode="=" d="M251 595q0 -94 30 -94h1190q33 0 33 94t-33 95h-1190q-30 -1 -30 -95zM251 1097q0 -94 30 -95h1190q33 0 33 95q0 94 -33 94h-1190q-30 0 -30 -94z" />
<glyph unicode="&#x3e;" d="M501 345q0 -94 30 -94h439q32 0 32 94t-32 94h-439q-30 0 -30 -94zM501 1347q0 -94 30 -94h439q32 0 32 94t-32 94h-439q-30 0 -30 -94zM752 595q0 -94 30 -94h439q32 0 32 94t-32 95h-439q-30 -1 -30 -95zM752 1097q0 -94 30 -95h439q32 0 32 95q0 94 -32 94h-439 q-30 0 -30 -94zM1002 846q0 -94 30 -94h439q33 0 33 94t-33 94h-439q-30 0 -30 -94z" />
<glyph unicode="?" d="M0 1347q0 -94 30 -94h439q32 0 32 94t-32 94h-439q-30 0 -30 -94zM251 1598q0 -94 30 -94h1190q33 0 33 94t-33 94h-1190q-30 0 -30 -94zM501 94q0 -94 30 -94h439q32 0 32 94t-32 94h-439q-30 0 -30 -94zM501 345q0 -94 30 -94h439q32 0 32 94t-32 94h-439 q-30 0 -30 -94zM501 846q0 -94 30 -94h439q32 0 32 94t-32 94h-439q-30 0 -30 -94zM752 1097q0 -94 30 -95h689q33 0 33 95q0 94 -33 94h-689q-30 0 -30 -94zM1253 1347q0 -94 30 -94h439q32 0 32 94t-32 94h-439q-30 0 -30 -94z" />
<glyph unicode="@" d="M0 345q0 -94 30 -94h439q32 0 32 94t-32 94h-439q-30 0 -30 -94zM0 595q0 -94 30 -94h1441q33 0 33 94t-33 95h-1441q-30 -1 -30 -95zM0 846q0 -94 30 -94h439q32 0 32 94t-32 94h-439q-30 0 -30 -94zM0 1097q0 -94 30 -95h940q32 0 32 95q0 94 -32 94h-940 q-30 0 -30 -94zM0 1347q0 -94 30 -94h439q32 0 32 94t-32 94h-439q-30 0 -30 -94zM251 94q0 -94 30 -94h1190q33 0 33 94t-33 94h-1190q-30 0 -30 -94zM251 1598q0 -94 30 -94h1190q33 0 33 94t-33 94h-1190q-30 0 -30 -94zM752 846q0 -94 30 -94h188q32 0 32 94t-32 94 h-188q-30 0 -30 -94zM1253 846q0 -94 30 -94h439q32 0 32 94t-32 94h-439q-30 0 -30 -94zM1253 1097q0 -94 30 -95h439q32 0 32 95q0 94 -32 94h-439q-30 0 -30 -94zM1253 1347q0 -94 30 -94h439q32 0 32 94t-32 94h-439q-30 0 -30 -94z" />
<glyph unicode="A" d="M0 94q0 -94 30 -94h439q32 0 32 94t-32 94h-439q-30 0 -30 -94zM0 345q0 -94 30 -94h439q32 0 32 94t-32 94h-439q-30 0 -30 -94zM0 595q0 -94 30 -94h1692q32 0 32 94t-32 95h-1692q-30 -1 -30 -95zM0 846q0 -94 30 -94h439q32 0 32 94t-32 94h-439q-30 0 -30 -94z M0 1097q0 -94 30 -95h439q32 0 32 95q0 94 -32 94h-439q-30 0 -30 -94zM251 1347q0 -94 30 -94h439q32 0 32 94t-32 94h-439q-30 0 -30 -94zM501 1598q0 -94 30 -94h690q32 0 32 94t-32 94h-690q-30 0 -30 -94zM1002 1347q0 -94 30 -94h439q33 0 33 94t-33 94h-439 q-30 0 -30 -94zM1253 94q0 -94 30 -94h439q32 0 32 94t-32 94h-439q-30 0 -30 -94zM1253 345q0 -94 30 -94h439q32 0 32 94t-32 94h-439q-30 0 -30 -94zM1253 846q0 -94 30 -94h439q32 0 32 94t-32 94h-439q-30 0 -30 -94zM1253 1097q0 -94 30 -95h439q32 0 32 95 q0 94 -32 94h-439q-30 0 -30 -94z" />
<glyph unicode="B" d="M0 94q0 -94 30 -94h1441q33 0 33 94t-33 94h-1441q-30 0 -30 -94zM0 345q0 -94 30 -94h439q32 0 32 94t-32 94h-439q-30 0 -30 -94zM0 595q0 -94 30 -94h439q32 0 32 94t-32 95h-439q-30 -1 -30 -95zM0 846q0 -94 30 -94h1441q33 0 33 94t-33 94h-1441q-30 0 -30 -94z M0 1097q0 -94 30 -95h439q32 0 32 95q0 94 -32 94h-439q-30 0 -30 -94zM0 1347q0 -94 30 -94h439q32 0 32 94t-32 94h-439q-30 0 -30 -94zM0 1598q0 -94 30 -94h1441q33 0 33 94t-33 94h-1441q-30 0 -30 -94zM1253 345q0 -94 30 -94h439q32 0 32 94t-32 94h-439 q-30 0 -30 -94zM1253 595q0 -94 30 -94h439q32 0 32 94t-32 95h-439q-30 -1 -30 -95zM1253 1097q0 -94 30 -95h439q32 0 32 95q0 94 -32 94h-439q-30 0 -30 -94zM1253 1347q0 -94 30 -94h439q32 0 32 94t-32 94h-439q-30 0 -30 -94z" />
<glyph unicode="C" d="M0 595q0 -94 30 -94h439q32 0 32 94t-32 95h-439q-30 -1 -30 -95zM0 846q0 -94 30 -94h439q32 0 32 94t-32 94h-439q-30 0 -30 -94zM0 1097q0 -94 30 -95h439q32 0 32 95q0 94 -32 94h-439q-30 0 -30 -94zM251 345q0 -94 30 -94h439q32 0 32 94t-32 94h-439 q-30 0 -30 -94zM251 1347q0 -94 30 -94h439q32 0 32 94t-32 94h-439q-30 0 -30 -94zM501 94q0 -94 30 -94h940q33 0 33 94t-33 94h-940q-30 0 -30 -94zM501 1598q0 -94 30 -94h940q33 0 33 94t-33 94h-940q-30 0 -30 -94zM1253 345q0 -94 30 -94h439q32 0 32 94t-32 94h-439 q-30 0 -30 -94zM1253 1347q0 -94 30 -94h439q32 0 32 94t-32 94h-439q-30 0 -30 -94z" />
<glyph unicode="D" d="M0 94q0 -94 30 -94h1191q32 0 32 94t-32 94h-1191q-30 0 -30 -94zM0 345q0 -94 30 -94h439q32 0 32 94t-32 94h-439q-30 0 -30 -94zM0 595q0 -94 30 -94h439q32 0 32 94t-32 95h-439q-30 -1 -30 -95zM0 846q0 -94 30 -94h439q32 0 32 94t-32 94h-439q-30 0 -30 -94z M0 1097q0 -94 30 -95h439q32 0 32 95q0 94 -32 94h-439q-30 0 -30 -94zM0 1347q0 -94 30 -94h439q32 0 32 94t-32 94h-439q-30 0 -30 -94zM0 1598q0 -94 30 -94h1191q32 0 32 94t-32 94h-1191q-30 0 -30 -94zM1002 345q0 -94 30 -94h439q33 0 33 94t-33 94h-439 q-30 0 -30 -94zM1002 1347q0 -94 30 -94h439q33 0 33 94t-33 94h-439q-30 0 -30 -94zM1253 595q0 -94 30 -94h439q32 0 32 94t-32 95h-439q-30 -1 -30 -95zM1253 846q0 -94 30 -94h439q32 0 32 94t-32 94h-439q-30 0 -30 -94zM1253 1097q0 -94 30 -95h439q32 0 32 95 q0 94 -32 94h-439q-30 0 -30 -94z" />
<glyph unicode="E" d="M0 94q0 -94 30 -94h1692q32 0 32 94t-32 94h-1692q-30 0 -30 -94zM0 345q0 -94 30 -94h439q32 0 32 94t-32 94h-439q-30 0 -30 -94zM0 595q0 -94 30 -94h439q32 0 32 94t-32 95h-439q-30 -1 -30 -95zM0 846q0 -94 30 -94h1441q33 0 33 94t-33 94h-1441q-30 0 -30 -94z M0 1097q0 -94 30 -95h439q32 0 32 95q0 94 -32 94h-439q-30 0 -30 -94zM0 1347q0 -94 30 -94h439q32 0 32 94t-32 94h-439q-30 0 -30 -94zM0 1598q0 -94 30 -94h1692q32 0 32 94t-32 94h-1692q-30 0 -30 -94z" />
<glyph unicode="F" d="M0 94q0 -94 30 -94h439q32 0 32 94t-32 94h-439q-30 0 -30 -94zM0 345q0 -94 30 -94h439q32 0 32 94t-32 94h-439q-30 0 -30 -94zM0 595q0 -94 30 -94h439q32 0 32 94t-32 95h-439q-30 -1 -30 -95zM0 846q0 -94 30 -94h1441q33 0 33 94t-33 94h-1441q-30 0 -30 -94z M0 1097q0 -94 30 -95h439q32 0 32 95q0 94 -32 94h-439q-30 0 -30 -94zM0 1347q0 -94 30 -94h439q32 0 32 94t-32 94h-439q-30 0 -30 -94zM0 1598q0 -94 30 -94h1692q32 0 32 94t-32 94h-1692q-30 0 -30 -94z" />
<glyph unicode="G" d="M0 595q0 -94 30 -94h439q32 0 32 94t-32 95h-439q-30 -1 -30 -95zM0 846q0 -94 30 -94h439q32 0 32 94t-32 94h-439q-30 0 -30 -94zM0 1097q0 -94 30 -95h439q32 0 32 95q0 94 -32 94h-439q-30 0 -30 -94zM251 345q0 -94 30 -94h439q32 0 32 94t-32 94h-439 q-30 0 -30 -94zM251 1347q0 -94 30 -94h439q32 0 32 94t-32 94h-439q-30 0 -30 -94zM501 94q0 -94 30 -94h1191q32 0 32 94t-32 94h-1191q-30 0 -30 -94zM501 1598q0 -94 30 -94h1191q32 0 32 94t-32 94h-1191q-30 0 -30 -94zM1002 846q0 -94 30 -94h690q32 0 32 94t-32 94 h-690q-30 0 -30 -94zM1253 345q0 -94 30 -94h439q32 0 32 94t-32 94h-439q-30 0 -30 -94zM1253 595q0 -94 30 -94h439q32 0 32 94t-32 95h-439q-30 -1 -30 -95z" />
<glyph unicode="H" d="M0 94q0 -94 30 -94h439q32 0 32 94t-32 94h-439q-30 0 -30 -94zM0 345q0 -94 30 -94h439q32 0 32 94t-32 94h-439q-30 0 -30 -94zM0 595q0 -94 30 -94h439q32 0 32 94t-32 95h-439q-30 -1 -30 -95zM0 846q0 -94 30 -94h1692q32 0 32 94t-32 94h-1692q-30 0 -30 -94z M0 1097q0 -94 30 -95h439q32 0 32 95q0 94 -32 94h-439q-30 0 -30 -94zM0 1347q0 -94 30 -94h439q32 0 32 94t-32 94h-439q-30 0 -30 -94zM0 1598q0 -94 30 -94h439q32 0 32 94t-32 94h-439q-30 0 -30 -94zM1253 94q0 -94 30 -94h439q32 0 32 94t-32 94h-439q-30 0 -30 -94z M1253 345q0 -94 30 -94h439q32 0 32 94t-32 94h-439q-30 0 -30 -94zM1253 595q0 -94 30 -94h439q32 0 32 94t-32 95h-439q-30 -1 -30 -95zM1253 1097q0 -94 30 -95h439q32 0 32 95q0 94 -32 94h-439q-30 0 -30 -94zM1253 1347q0 -94 30 -94h439q32 0 32 94t-32 94h-439 q-30 0 -30 -94zM1253 1598q0 -94 30 -94h439q32 0 32 94t-32 94h-439q-30 0 -30 -94z" />
<glyph unicode="I" d="M251 94q0 -94 30 -94h1441q32 0 32 94t-32 94h-1441q-30 0 -30 -94zM251 1598q0 -94 30 -94h1441q32 0 32 94t-32 94h-1441q-30 0 -30 -94zM752 345q0 -94 30 -94h439q32 0 32 94t-32 94h-439q-30 0 -30 -94zM752 595q0 -94 30 -94h439q32 0 32 94t-32 95h-439 q-30 -1 -30 -95zM752 846q0 -94 30 -94h439q32 0 32 94t-32 94h-439q-30 0 -30 -94zM752 1097q0 -94 30 -95h439q32 0 32 95q0 94 -32 94h-439q-30 0 -30 -94zM752 1347q0 -94 30 -94h439q32 0 32 94t-32 94h-439q-30 0 -30 -94z" />
<glyph unicode="J" d="M0 345q0 -94 30 -94h439q32 0 32 94t-32 94h-439q-30 0 -30 -94zM0 595q0 -94 30 -94h439q32 0 32 94t-32 95h-439q-30 -1 -30 -95zM251 94q0 -94 30 -94h1190q33 0 33 94t-33 94h-1190q-30 0 -30 -94zM1253 345q0 -94 30 -94h439q32 0 32 94t-32 94h-439q-30 0 -30 -94z M1253 595q0 -94 30 -94h439q32 0 32 94t-32 95h-439q-30 -1 -30 -95zM1253 846q0 -94 30 -94h439q32 0 32 94t-32 94h-439q-30 0 -30 -94zM1253 1097q0 -94 30 -95h439q32 0 32 95q0 94 -32 94h-439q-30 0 -30 -94zM1253 1347q0 -94 30 -94h439q32 0 32 94t-32 94h-439 q-30 0 -30 -94zM1253 1598q0 -94 30 -94h439q32 0 32 94t-32 94h-439q-30 0 -30 -94z" />
<glyph unicode="K" d="M0 94q0 -94 30 -94h439q32 0 32 94t-32 94h-439q-30 0 -30 -94zM0 345q0 -94 30 -94h439q32 0 32 94t-32 94h-439q-30 0 -30 -94zM0 595q0 -94 30 -94h1191q32 0 32 94t-32 95h-1191q-30 -1 -30 -95zM0 846q0 -94 30 -94h940q32 0 32 94t-32 94h-940q-30 0 -30 -94z M0 1097q0 -94 30 -95h439q32 0 32 95q0 94 -32 94h-439q-30 0 -30 -94zM0 1347q0 -94 30 -94h439q32 0 32 94t-32 94h-439q-30 0 -30 -94zM0 1598q0 -94 30 -94h439q32 0 32 94t-32 94h-439q-30 0 -30 -94zM752 345q0 -94 30 -94h689q33 0 33 94t-33 94h-689q-30 0 -30 -94z M752 1097q0 -94 30 -95h439q32 0 32 95q0 94 -32 94h-439q-30 0 -30 -94zM1002 94q0 -94 30 -94h690q32 0 32 94t-32 94h-690q-30 0 -30 -94zM1002 1347q0 -94 30 -94h439q33 0 33 94t-33 94h-439q-30 0 -30 -94zM1253 1598q0 -94 30 -94h439q32 0 32 94t-32 94h-439 q-30 0 -30 -94z" />
<glyph unicode="L" d="M0 94q0 -94 30 -94h1692q32 0 32 94t-32 94h-1692q-30 0 -30 -94zM0 345q0 -94 30 -94h439q32 0 32 94t-32 94h-439q-30 0 -30 -94zM0 595q0 -94 30 -94h439q32 0 32 94t-32 95h-439q-30 -1 -30 -95zM0 846q0 -94 30 -94h439q32 0 32 94t-32 94h-439q-30 0 -30 -94z M0 1097q0 -94 30 -95h439q32 0 32 95q0 94 -32 94h-439q-30 0 -30 -94zM0 1347q0 -94 30 -94h439q32 0 32 94t-32 94h-439q-30 0 -30 -94zM0 1598q0 -94 30 -94h439q32 0 32 94t-32 94h-439q-30 0 -30 -94z" />
<glyph unicode="M" d="M0 94q0 -94 30 -94h439q32 0 32 94t-32 94h-439q-30 0 -30 -94zM0 345q0 -94 30 -94h439q32 0 32 94t-32 94h-439q-30 0 -30 -94zM0 595q0 -94 30 -94h439q32 0 32 94t-32 95h-439q-30 -1 -30 -95zM0 846q0 -94 30 -94h1692q32 0 32 94t-32 94h-1692q-30 0 -30 -94z M0 1097q0 -94 30 -95h1692q32 0 32 95q0 94 -32 94h-1692q-30 0 -30 -94zM0 1347q0 -94 30 -94h690q32 0 32 94t-32 94h-690q-30 0 -30 -94zM0 1598q0 -94 30 -94h439q32 0 32 94t-32 94h-439q-30 0 -30 -94zM752 595q0 -94 30 -94h188q32 0 32 94t-32 95h-188 q-30 -1 -30 -95zM1002 1347q0 -94 30 -94h690q32 0 32 94t-32 94h-690q-30 0 -30 -94zM1253 94q0 -94 30 -94h439q32 0 32 94t-32 94h-439q-30 0 -30 -94zM1253 345q0 -94 30 -94h439q32 0 32 94t-32 94h-439q-30 0 -30 -94zM1253 595q0 -94 30 -94h439q32 0 32 94t-32 95 h-439q-30 -1 -30 -95zM1253 1598q0 -94 30 -94h439q32 0 32 94t-32 94h-439q-30 0 -30 -94z" />
<glyph unicode="N" d="M0 94q0 -94 30 -94h439q32 0 32 94t-32 94h-439q-30 0 -30 -94zM0 345q0 -94 30 -94h439q32 0 32 94t-32 94h-439q-30 0 -30 -94zM0 595q0 -94 30 -94h439q32 0 32 94t-32 95h-439q-30 -1 -30 -95zM0 846q0 -94 30 -94h1692q32 0 32 94t-32 94h-1692q-30 0 -30 -94z M0 1097q0 -94 30 -95h940q32 0 32 95q0 94 -32 94h-940q-30 0 -30 -94zM0 1347q0 -94 30 -94h690q32 0 32 94t-32 94h-690q-30 0 -30 -94zM0 1598q0 -94 30 -94h439q32 0 32 94t-32 94h-439q-30 0 -30 -94zM752 595q0 -94 30 -94h940q32 0 32 94t-32 95h-940q-30 -1 -30 -95 zM1002 345q0 -94 30 -94h690q32 0 32 94t-32 94h-690q-30 0 -30 -94zM1253 94q0 -94 30 -94h439q32 0 32 94t-32 94h-439q-30 0 -30 -94zM1253 1097q0 -94 30 -95h439q32 0 32 95q0 94 -32 94h-439q-30 0 -30 -94zM1253 1347q0 -94 30 -94h439q32 0 32 94t-32 94h-439 q-30 0 -30 -94zM1253 1598q0 -94 30 -94h439q32 0 32 94t-32 94h-439q-30 0 -30 -94z" />
<glyph unicode="O" d="M0 345q0 -94 30 -94h439q32 0 32 94t-32 94h-439q-30 0 -30 -94zM0 595q0 -94 30 -94h439q32 0 32 94t-32 95h-439q-30 -1 -30 -95zM0 846q0 -94 30 -94h439q32 0 32 94t-32 94h-439q-30 0 -30 -94zM0 1097q0 -94 30 -95h439q32 0 32 95q0 94 -32 94h-439q-30 0 -30 -94z M0 1347q0 -94 30 -94h439q32 0 32 94t-32 94h-439q-30 0 -30 -94zM251 94q0 -94 30 -94h1190q33 0 33 94t-33 94h-1190q-30 0 -30 -94zM251 1598q0 -94 30 -94h1190q33 0 33 94t-33 94h-1190q-30 0 -30 -94zM1253 345q0 -94 30 -94h439q32 0 32 94t-32 94h-439 q-30 0 -30 -94zM1253 595q0 -94 30 -94h439q32 0 32 94t-32 95h-439q-30 -1 -30 -95zM1253 846q0 -94 30 -94h439q32 0 32 94t-32 94h-439q-30 0 -30 -94zM1253 1097q0 -94 30 -95h439q32 0 32 95q0 94 -32 94h-439q-30 0 -30 -94zM1253 1347q0 -94 30 -94h439q32 0 32 94 t-32 94h-439q-30 0 -30 -94z" />
<glyph unicode="P" d="M0 94q0 -94 30 -94h439q32 0 32 94t-32 94h-439q-30 0 -30 -94zM0 345q0 -94 30 -94h439q32 0 32 94t-32 94h-439q-30 0 -30 -94zM0 595q0 -94 30 -94h1441q33 0 33 94t-33 95h-1441q-30 -1 -30 -95zM0 846q0 -94 30 -94h439q32 0 32 94t-32 94h-439q-30 0 -30 -94z M0 1097q0 -94 30 -95h439q32 0 32 95q0 94 -32 94h-439q-30 0 -30 -94zM0 1347q0 -94 30 -94h439q32 0 32 94t-32 94h-439q-30 0 -30 -94zM0 1598q0 -94 30 -94h1441q33 0 33 94t-33 94h-1441q-30 0 -30 -94zM1253 846q0 -94 30 -94h439q32 0 32 94t-32 94h-439 q-30 0 -30 -94zM1253 1097q0 -94 30 -95h439q32 0 32 95q0 94 -32 94h-439q-30 0 -30 -94zM1253 1347q0 -94 30 -94h439q32 0 32 94t-32 94h-439q-30 0 -30 -94z" />
<glyph unicode="Q" d="M0 345q0 -94 30 -94h439q32 0 32 94t-32 94h-439q-30 0 -30 -94zM0 595q0 -94 30 -94h439q32 0 32 94t-32 95h-439q-30 -1 -30 -95zM0 846q0 -94 30 -94h439q32 0 32 94t-32 94h-439q-30 0 -30 -94zM0 1097q0 -94 30 -95h439q32 0 32 95q0 94 -32 94h-439q-30 0 -30 -94z M0 1347q0 -94 30 -94h439q32 0 32 94t-32 94h-439q-30 0 -30 -94zM251 94q0 -94 30 -94h940q32 0 32 94t-32 94h-940q-30 0 -30 -94zM251 1598q0 -94 30 -94h1190q33 0 33 94t-33 94h-1190q-30 0 -30 -94zM752 595q0 -94 30 -94h940q32 0 32 94t-32 95h-940q-30 -1 -30 -95z M1002 345q0 -94 30 -94h439q33 0 33 94t-33 94h-439q-30 0 -30 -94zM1253 846q0 -94 30 -94h439q32 0 32 94t-32 94h-439q-30 0 -30 -94zM1253 1097q0 -94 30 -95h439q32 0 32 95q0 94 -32 94h-439q-30 0 -30 -94zM1253 1347q0 -94 30 -94h439q32 0 32 94t-32 94h-439 q-30 0 -30 -94zM1504 94q0 -94 30 -94h188q32 0 32 94t-32 94h-188q-30 0 -30 -94z" />
<glyph unicode="R" d="M0 94q0 -94 30 -94h439q32 0 32 94t-32 94h-439q-30 0 -30 -94zM0 345q0 -94 30 -94h439q32 0 32 94t-32 94h-439q-30 0 -30 -94zM0 595q0 -94 30 -94h1191q32 0 32 94t-32 95h-1191q-30 -1 -30 -95zM0 846q0 -94 30 -94h439q32 0 32 94t-32 94h-439q-30 0 -30 -94z M0 1097q0 -94 30 -95h439q32 0 32 95q0 94 -32 94h-439q-30 0 -30 -94zM0 1347q0 -94 30 -94h439q32 0 32 94t-32 94h-439q-30 0 -30 -94zM0 1598q0 -94 30 -94h1441q33 0 33 94t-33 94h-1441q-30 0 -30 -94zM752 345q0 -94 30 -94h689q33 0 33 94t-33 94h-689 q-30 0 -30 -94zM1002 94q0 -94 30 -94h690q32 0 32 94t-32 94h-690q-30 0 -30 -94zM1002 846q0 -94 30 -94h690q32 0 32 94t-32 94h-690q-30 0 -30 -94zM1253 1097q0 -94 30 -95h439q32 0 32 95q0 94 -32 94h-439q-30 0 -30 -94zM1253 1347q0 -94 30 -94h439q32 0 32 94 t-32 94h-439q-30 0 -30 -94z" />
<glyph unicode="S" d="M0 345q0 -94 30 -94h439q32 0 32 94t-32 94h-439q-30 0 -30 -94zM0 1097q0 -94 30 -95h439q32 0 32 95q0 94 -32 94h-439q-30 0 -30 -94zM0 1347q0 -94 30 -94h439q32 0 32 94t-32 94h-439q-30 0 -30 -94zM251 94q0 -94 30 -94h1190q33 0 33 94t-33 94h-1190 q-30 0 -30 -94zM251 846q0 -94 30 -94h1190q33 0 33 94t-33 94h-1190q-30 0 -30 -94zM251 1598q0 -94 30 -94h940q32 0 32 94t-32 94h-940q-30 0 -30 -94zM1002 1347q0 -94 30 -94h439q33 0 33 94t-33 94h-439q-30 0 -30 -94zM1253 345q0 -94 30 -94h439q32 0 32 94t-32 94 h-439q-30 0 -30 -94zM1253 595q0 -94 30 -94h439q32 0 32 94t-32 95h-439q-30 -1 -30 -95z" />
<glyph unicode="T" d="M251 1598q0 -94 30 -94h1441q32 0 32 94t-32 94h-1441q-30 0 -30 -94zM752 94q0 -94 30 -94h439q32 0 32 94t-32 94h-439q-30 0 -30 -94zM752 345q0 -94 30 -94h439q32 0 32 94t-32 94h-439q-30 0 -30 -94zM752 595q0 -94 30 -94h439q32 0 32 94t-32 95h-439 q-30 -1 -30 -95zM752 846q0 -94 30 -94h439q32 0 32 94t-32 94h-439q-30 0 -30 -94zM752 1097q0 -94 30 -95h439q32 0 32 95q0 94 -32 94h-439q-30 0 -30 -94zM752 1347q0 -94 30 -94h439q32 0 32 94t-32 94h-439q-30 0 -30 -94z" />
<glyph unicode="U" d="M0 345q0 -94 30 -94h439q32 0 32 94t-32 94h-439q-30 0 -30 -94zM0 595q0 -94 30 -94h439q32 0 32 94t-32 95h-439q-30 -1 -30 -95zM0 846q0 -94 30 -94h439q32 0 32 94t-32 94h-439q-30 0 -30 -94zM0 1097q0 -94 30 -95h439q32 0 32 95q0 94 -32 94h-439q-30 0 -30 -94z M0 1347q0 -94 30 -94h439q32 0 32 94t-32 94h-439q-30 0 -30 -94zM0 1598q0 -94 30 -94h439q32 0 32 94t-32 94h-439q-30 0 -30 -94zM251 94q0 -94 30 -94h1190q33 0 33 94t-33 94h-1190q-30 0 -30 -94zM1253 345q0 -94 30 -94h439q32 0 32 94t-32 94h-439q-30 0 -30 -94z M1253 595q0 -94 30 -94h439q32 0 32 94t-32 95h-439q-30 -1 -30 -95zM1253 846q0 -94 30 -94h439q32 0 32 94t-32 94h-439q-30 0 -30 -94zM1253 1097q0 -94 30 -95h439q32 0 32 95q0 94 -32 94h-439q-30 0 -30 -94zM1253 1347q0 -94 30 -94h439q32 0 32 94t-32 94h-439 q-30 0 -30 -94zM1253 1598q0 -94 30 -94h439q32 0 32 94t-32 94h-439q-30 0 -30 -94z" />
<glyph unicode="V" d="M0 846q0 -94 30 -94h690q32 0 32 94t-32 94h-690q-30 0 -30 -94zM0 1097q0 -94 30 -95h439q32 0 32 95q0 94 -32 94h-439q-30 0 -30 -94zM0 1347q0 -94 30 -94h439q32 0 32 94t-32 94h-439q-30 0 -30 -94zM0 1598q0 -94 30 -94h439q32 0 32 94t-32 94h-439q-30 0 -30 -94 zM251 595q0 -94 30 -94h1190q33 0 33 94t-33 95h-1190q-30 -1 -30 -95zM501 345q0 -94 30 -94h690q32 0 32 94t-32 94h-690q-30 0 -30 -94zM752 94q0 -94 30 -94h188q32 0 32 94t-32 94h-188q-30 0 -30 -94zM1002 846q0 -94 30 -94h690q32 0 32 94t-32 94h-690 q-30 0 -30 -94zM1253 1097q0 -94 30 -95h439q32 0 32 95q0 94 -32 94h-439q-30 0 -30 -94zM1253 1347q0 -94 30 -94h439q32 0 32 94t-32 94h-439q-30 0 -30 -94zM1253 1598q0 -94 30 -94h439q32 0 32 94t-32 94h-439q-30 0 -30 -94z" />
<glyph unicode="W" d="M0 94q0 -94 30 -94h439q32 0 32 94t-32 94h-439q-30 0 -30 -94zM0 345q0 -94 30 -94h690q32 0 32 94t-32 94h-690q-30 0 -30 -94zM0 595q0 -94 30 -94h1692q32 0 32 94t-32 95h-1692q-30 -1 -30 -95zM0 846q0 -94 30 -94h439q32 0 32 94t-32 94h-439q-30 0 -30 -94z M0 1097q0 -94 30 -95h439q32 0 32 95q0 94 -32 94h-439q-30 0 -30 -94zM0 1347q0 -94 30 -94h439q32 0 32 94t-32 94h-439q-30 0 -30 -94zM0 1598q0 -94 30 -94h439q32 0 32 94t-32 94h-439q-30 0 -30 -94zM752 846q0 -94 30 -94h188q32 0 32 94t-32 94h-188q-30 0 -30 -94z M1002 345q0 -94 30 -94h690q32 0 32 94t-32 94h-690q-30 0 -30 -94zM1253 94q0 -94 30 -94h439q32 0 32 94t-32 94h-439q-30 0 -30 -94zM1253 846q0 -94 30 -94h439q32 0 32 94t-32 94h-439q-30 0 -30 -94zM1253 1097q0 -94 30 -95h439q32 0 32 95q0 94 -32 94h-439 q-30 0 -30 -94zM1253 1347q0 -94 30 -94h439q32 0 32 94t-32 94h-439q-30 0 -30 -94zM1253 1598q0 -94 30 -94h439q32 0 32 94t-32 94h-439q-30 0 -30 -94z" />
<glyph unicode="X" d="M0 94q0 -94 30 -94h439q32 0 32 94t-32 94h-439q-30 0 -30 -94zM0 345q0 -94 30 -94h690q32 0 32 94t-32 94h-690q-30 0 -30 -94zM0 1347q0 -94 30 -94h690q32 0 32 94t-32 94h-690q-30 0 -30 -94zM0 1598q0 -94 30 -94h439q32 0 32 94t-32 94h-439q-30 0 -30 -94z M251 595q0 -94 30 -94h1190q33 0 33 94t-33 95h-1190q-30 -1 -30 -95zM251 1097q0 -94 30 -95h1190q33 0 33 95q0 94 -33 94h-1190q-30 0 -30 -94zM501 846q0 -94 30 -94h690q32 0 32 94t-32 94h-690q-30 0 -30 -94zM1002 345q0 -94 30 -94h690q32 0 32 94t-32 94h-690 q-30 0 -30 -94zM1002 1347q0 -94 30 -94h690q32 0 32 94t-32 94h-690q-30 0 -30 -94zM1253 94q0 -94 30 -94h439q32 0 32 94t-32 94h-439q-30 0 -30 -94zM1253 1598q0 -94 30 -94h439q32 0 32 94t-32 94h-439q-30 0 -30 -94z" />
<glyph unicode="Y" d="M251 1097q0 -94 30 -95h439q32 0 32 95q0 94 -32 94h-439q-30 0 -30 -94zM251 1347q0 -94 30 -94h439q32 0 32 94t-32 94h-439q-30 0 -30 -94zM251 1598q0 -94 30 -94h439q32 0 32 94t-32 94h-439q-30 0 -30 -94zM501 846q0 -94 30 -94h940q33 0 33 94t-33 94h-940 q-30 0 -30 -94zM752 94q0 -94 30 -94h439q32 0 32 94t-32 94h-439q-30 0 -30 -94zM752 345q0 -94 30 -94h439q32 0 32 94t-32 94h-439q-30 0 -30 -94zM752 595q0 -94 30 -94h439q32 0 32 94t-32 95h-439q-30 -1 -30 -95zM1253 1097q0 -94 30 -95h439q32 0 32 95q0 94 -32 94 h-439q-30 0 -30 -94zM1253 1347q0 -94 30 -94h439q32 0 32 94t-32 94h-439q-30 0 -30 -94zM1253 1598q0 -94 30 -94h439q32 0 32 94t-32 94h-439q-30 0 -30 -94z" />
<glyph unicode="Z" d="M0 94q0 -94 30 -94h1692q32 0 32 94t-32 94h-1692q-30 0 -30 -94zM0 345q0 -94 30 -94h690q32 0 32 94t-32 94h-690q-30 0 -30 -94zM0 1598q0 -94 30 -94h1692q32 0 32 94t-32 94h-1692q-30 0 -30 -94zM251 595q0 -94 30 -94h689q32 0 32 94t-32 95h-689q-30 -1 -30 -95z M501 846q0 -94 30 -94h690q32 0 32 94t-32 94h-690q-30 0 -30 -94zM752 1097q0 -94 30 -95h689q33 0 33 95q0 94 -33 94h-689q-30 0 -30 -94zM1002 1347q0 -94 30 -94h690q32 0 32 94t-32 94h-690q-30 0 -30 -94z" />
<glyph unicode="[" d="M501 94q0 -94 30 -94h690q32 0 32 94t-32 94h-690q-30 0 -30 -94zM501 345q0 -94 30 -94h439q32 0 32 94t-32 94h-439q-30 0 -30 -94zM501 595q0 -94 30 -94h439q32 0 32 94t-32 95h-439q-30 -1 -30 -95zM501 846q0 -94 30 -94h439q32 0 32 94t-32 94h-439q-30 0 -30 -94 zM501 1097q0 -94 30 -95h439q32 0 32 95q0 94 -32 94h-439q-30 0 -30 -94zM501 1347q0 -94 30 -94h439q32 0 32 94t-32 94h-439q-30 0 -30 -94zM501 1598q0 -94 30 -94h690q32 0 32 94t-32 94h-690q-30 0 -30 -94z" />
<glyph unicode="\" d="M0 1598q0 94 30 94h189q32 0 32 -94t-32 -94h-189q-30 0 -30 94zM251 1347q0 94 30 94h188q32 0 32 -94t-32 -94h-188q-30 0 -30 94zM501 1097q0 94 30 94h189q32 0 32 -94t-32 -95h-189q-30 1 -30 95zM752 846q0 94 30 94h188q32 0 32 -94t-32 -94h-188q-30 0 -30 94z M1002 595q0 94 30 95h189q32 0 32 -95q0 -94 -32 -94h-189q-30 0 -30 94zM1253 345q0 94 30 94h188q33 0 33 -94t-33 -94h-188q-30 0 -30 94zM1504 94q0 94 30 94h188q32 0 32 -94t-32 -94h-188q-30 0 -30 94z" />
<glyph unicode="]" d="M501 94q0 -94 30 -94h690q32 0 32 94t-32 94h-690q-30 0 -30 -94zM501 1598q0 -94 30 -94h690q32 0 32 94t-32 94h-690q-30 0 -30 -94zM752 345q0 -94 30 -94h439q32 0 32 94t-32 94h-439q-30 0 -30 -94zM752 595q0 -94 30 -94h439q32 0 32 94t-32 95h-439 q-30 -1 -30 -95zM752 846q0 -94 30 -94h439q32 0 32 94t-32 94h-439q-30 0 -30 -94zM752 1097q0 -94 30 -95h439q32 0 32 95q0 94 -32 94h-439q-30 0 -30 -94zM752 1347q0 -94 30 -94h439q32 0 32 94t-32 94h-439q-30 0 -30 -94z" />
<glyph unicode="^" d="M501 1347q0 94 30 94h189q32 0 32 -94t-32 -94h-189q-30 0 -30 94zM752 1598q0 94 30 94h188q32 0 32 -94t-32 -94h-188q-30 0 -30 94zM1002 1347q0 94 30 94h189q32 0 32 -94t-32 -94h-189q-30 0 -30 94z" />
<glyph unicode="_" d="M0 94q0 -94 30 -94h1692q32 0 32 94t-32 94h-1692q-30 0 -30 -94z" />
<glyph unicode="`" d="M752 1598q0 94 30 94h188q32 0 32 -94t-32 -94h-188q-30 0 -30 94zM1002 1347q0 94 30 94h189q32 0 32 -94t-32 -94h-189q-30 0 -30 94z" />
<glyph unicode="a" d="M0 94q0 -94 30 -94h439q32 0 32 94t-32 94h-439q-30 0 -30 -94zM0 345q0 -94 30 -94h439q32 0 32 94t-32 94h-439q-30 0 -30 -94zM0 595q0 -94 30 -94h1692q32 0 32 94t-32 95h-1692q-30 -1 -30 -95zM0 846q0 -94 30 -94h439q32 0 32 94t-32 94h-439q-30 0 -30 -94z M0 1097q0 -94 30 -95h439q32 0 32 95q0 94 -32 94h-439q-30 0 -30 -94zM251 1347q0 -94 30 -94h439q32 0 32 94t-32 94h-439q-30 0 -30 -94zM501 1598q0 -94 30 -94h690q32 0 32 94t-32 94h-690q-30 0 -30 -94zM1002 1347q0 -94 30 -94h439q33 0 33 94t-33 94h-439 q-30 0 -30 -94zM1253 94q0 -94 30 -94h439q32 0 32 94t-32 94h-439q-30 0 -30 -94zM1253 345q0 -94 30 -94h439q32 0 32 94t-32 94h-439q-30 0 -30 -94zM1253 846q0 -94 30 -94h439q32 0 32 94t-32 94h-439q-30 0 -30 -94zM1253 1097q0 -94 30 -95h439q32 0 32 95 q0 94 -32 94h-439q-30 0 -30 -94z" />
<glyph unicode="b" d="M0 94q0 -94 30 -94h1441q33 0 33 94t-33 94h-1441q-30 0 -30 -94zM0 345q0 -94 30 -94h439q32 0 32 94t-32 94h-439q-30 0 -30 -94zM0 595q0 -94 30 -94h439q32 0 32 94t-32 95h-439q-30 -1 -30 -95zM0 846q0 -94 30 -94h1441q33 0 33 94t-33 94h-1441q-30 0 -30 -94z M0 1097q0 -94 30 -95h439q32 0 32 95q0 94 -32 94h-439q-30 0 -30 -94zM0 1347q0 -94 30 -94h439q32 0 32 94t-32 94h-439q-30 0 -30 -94zM0 1598q0 -94 30 -94h1441q33 0 33 94t-33 94h-1441q-30 0 -30 -94zM1253 345q0 -94 30 -94h439q32 0 32 94t-32 94h-439 q-30 0 -30 -94zM1253 595q0 -94 30 -94h439q32 0 32 94t-32 95h-439q-30 -1 -30 -95zM1253 1097q0 -94 30 -95h439q32 0 32 95q0 94 -32 94h-439q-30 0 -30 -94zM1253 1347q0 -94 30 -94h439q32 0 32 94t-32 94h-439q-30 0 -30 -94z" />
<glyph unicode="c" d="M0 595q0 -94 30 -94h439q32 0 32 94t-32 95h-439q-30 -1 -30 -95zM0 846q0 -94 30 -94h439q32 0 32 94t-32 94h-439q-30 0 -30 -94zM0 1097q0 -94 30 -95h439q32 0 32 95q0 94 -32 94h-439q-30 0 -30 -94zM251 345q0 -94 30 -94h439q32 0 32 94t-32 94h-439 q-30 0 -30 -94zM251 1347q0 -94 30 -94h439q32 0 32 94t-32 94h-439q-30 0 -30 -94zM501 94q0 -94 30 -94h940q33 0 33 94t-33 94h-940q-30 0 -30 -94zM501 1598q0 -94 30 -94h940q33 0 33 94t-33 94h-940q-30 0 -30 -94zM1253 345q0 -94 30 -94h439q32 0 32 94t-32 94h-439 q-30 0 -30 -94zM1253 1347q0 -94 30 -94h439q32 0 32 94t-32 94h-439q-30 0 -30 -94z" />
<glyph unicode="d" d="M0 94q0 -94 30 -94h1191q32 0 32 94t-32 94h-1191q-30 0 -30 -94zM0 345q0 -94 30 -94h439q32 0 32 94t-32 94h-439q-30 0 -30 -94zM0 595q0 -94 30 -94h439q32 0 32 94t-32 95h-439q-30 -1 -30 -95zM0 846q0 -94 30 -94h439q32 0 32 94t-32 94h-439q-30 0 -30 -94z M0 1097q0 -94 30 -95h439q32 0 32 95q0 94 -32 94h-439q-30 0 -30 -94zM0 1347q0 -94 30 -94h439q32 0 32 94t-32 94h-439q-30 0 -30 -94zM0 1598q0 -94 30 -94h1191q32 0 32 94t-32 94h-1191q-30 0 -30 -94zM1002 345q0 -94 30 -94h439q33 0 33 94t-33 94h-439 q-30 0 -30 -94zM1002 1347q0 -94 30 -94h439q33 0 33 94t-33 94h-439q-30 0 -30 -94zM1253 595q0 -94 30 -94h439q32 0 32 94t-32 95h-439q-30 -1 -30 -95zM1253 846q0 -94 30 -94h439q32 0 32 94t-32 94h-439q-30 0 -30 -94zM1253 1097q0 -94 30 -95h439q32 0 32 95 q0 94 -32 94h-439q-30 0 -30 -94z" />
<glyph unicode="e" d="M0 94q0 -94 30 -94h1692q32 0 32 94t-32 94h-1692q-30 0 -30 -94zM0 345q0 -94 30 -94h439q32 0 32 94t-32 94h-439q-30 0 -30 -94zM0 595q0 -94 30 -94h439q32 0 32 94t-32 95h-439q-30 -1 -30 -95zM0 846q0 -94 30 -94h1441q33 0 33 94t-33 94h-1441q-30 0 -30 -94z M0 1097q0 -94 30 -95h439q32 0 32 95q0 94 -32 94h-439q-30 0 -30 -94zM0 1347q0 -94 30 -94h439q32 0 32 94t-32 94h-439q-30 0 -30 -94zM0 1598q0 -94 30 -94h1692q32 0 32 94t-32 94h-1692q-30 0 -30 -94z" />
<glyph unicode="f" d="M0 94q0 -94 30 -94h439q32 0 32 94t-32 94h-439q-30 0 -30 -94zM0 345q0 -94 30 -94h439q32 0 32 94t-32 94h-439q-30 0 -30 -94zM0 595q0 -94 30 -94h439q32 0 32 94t-32 95h-439q-30 -1 -30 -95zM0 846q0 -94 30 -94h1441q33 0 33 94t-33 94h-1441q-30 0 -30 -94z M0 1097q0 -94 30 -95h439q32 0 32 95q0 94 -32 94h-439q-30 0 -30 -94zM0 1347q0 -94 30 -94h439q32 0 32 94t-32 94h-439q-30 0 -30 -94zM0 1598q0 -94 30 -94h1692q32 0 32 94t-32 94h-1692q-30 0 -30 -94z" />
<glyph unicode="g" d="M0 595q0 -94 30 -94h439q32 0 32 94t-32 95h-439q-30 -1 -30 -95zM0 846q0 -94 30 -94h439q32 0 32 94t-32 94h-439q-30 0 -30 -94zM0 1097q0 -94 30 -95h439q32 0 32 95q0 94 -32 94h-439q-30 0 -30 -94zM251 345q0 -94 30 -94h439q32 0 32 94t-32 94h-439 q-30 0 -30 -94zM251 1347q0 -94 30 -94h439q32 0 32 94t-32 94h-439q-30 0 -30 -94zM501 94q0 -94 30 -94h1191q32 0 32 94t-32 94h-1191q-30 0 -30 -94zM501 1598q0 -94 30 -94h1191q32 0 32 94t-32 94h-1191q-30 0 -30 -94zM1002 846q0 -94 30 -94h690q32 0 32 94t-32 94 h-690q-30 0 -30 -94zM1253 345q0 -94 30 -94h439q32 0 32 94t-32 94h-439q-30 0 -30 -94zM1253 595q0 -94 30 -94h439q32 0 32 94t-32 95h-439q-30 -1 -30 -95z" />
<glyph unicode="h" d="M0 94q0 -94 30 -94h439q32 0 32 94t-32 94h-439q-30 0 -30 -94zM0 345q0 -94 30 -94h439q32 0 32 94t-32 94h-439q-30 0 -30 -94zM0 595q0 -94 30 -94h439q32 0 32 94t-32 95h-439q-30 -1 -30 -95zM0 846q0 -94 30 -94h1692q32 0 32 94t-32 94h-1692q-30 0 -30 -94z M0 1097q0 -94 30 -95h439q32 0 32 95q0 94 -32 94h-439q-30 0 -30 -94zM0 1347q0 -94 30 -94h439q32 0 32 94t-32 94h-439q-30 0 -30 -94zM0 1598q0 -94 30 -94h439q32 0 32 94t-32 94h-439q-30 0 -30 -94zM1253 94q0 -94 30 -94h439q32 0 32 94t-32 94h-439q-30 0 -30 -94z M1253 345q0 -94 30 -94h439q32 0 32 94t-32 94h-439q-30 0 -30 -94zM1253 595q0 -94 30 -94h439q32 0 32 94t-32 95h-439q-30 -1 -30 -95zM1253 1097q0 -94 30 -95h439q32 0 32 95q0 94 -32 94h-439q-30 0 -30 -94zM1253 1347q0 -94 30 -94h439q32 0 32 94t-32 94h-439 q-30 0 -30 -94zM1253 1598q0 -94 30 -94h439q32 0 32 94t-32 94h-439q-30 0 -30 -94z" />
<glyph unicode="i" d="M251 94q0 -94 30 -94h1441q32 0 32 94t-32 94h-1441q-30 0 -30 -94zM251 1598q0 -94 30 -94h1441q32 0 32 94t-32 94h-1441q-30 0 -30 -94zM752 345q0 -94 30 -94h439q32 0 32 94t-32 94h-439q-30 0 -30 -94zM752 595q0 -94 30 -94h439q32 0 32 94t-32 95h-439 q-30 -1 -30 -95zM752 846q0 -94 30 -94h439q32 0 32 94t-32 94h-439q-30 0 -30 -94zM752 1097q0 -94 30 -95h439q32 0 32 95q0 94 -32 94h-439q-30 0 -30 -94zM752 1347q0 -94 30 -94h439q32 0 32 94t-32 94h-439q-30 0 -30 -94z" />
<glyph unicode="j" d="M0 345q0 -94 30 -94h439q32 0 32 94t-32 94h-439q-30 0 -30 -94zM0 595q0 -94 30 -94h439q32 0 32 94t-32 95h-439q-30 -1 -30 -95zM251 94q0 -94 30 -94h1190q33 0 33 94t-33 94h-1190q-30 0 -30 -94zM1253 345q0 -94 30 -94h439q32 0 32 94t-32 94h-439q-30 0 -30 -94z M1253 595q0 -94 30 -94h439q32 0 32 94t-32 95h-439q-30 -1 -30 -95zM1253 846q0 -94 30 -94h439q32 0 32 94t-32 94h-439q-30 0 -30 -94zM1253 1097q0 -94 30 -95h439q32 0 32 95q0 94 -32 94h-439q-30 0 -30 -94zM1253 1347q0 -94 30 -94h439q32 0 32 94t-32 94h-439 q-30 0 -30 -94zM1253 1598q0 -94 30 -94h439q32 0 32 94t-32 94h-439q-30 0 -30 -94z" />
<glyph unicode="k" d="M0 94q0 -94 30 -94h439q32 0 32 94t-32 94h-439q-30 0 -30 -94zM0 345q0 -94 30 -94h439q32 0 32 94t-32 94h-439q-30 0 -30 -94zM0 595q0 -94 30 -94h1191q32 0 32 94t-32 95h-1191q-30 -1 -30 -95zM0 846q0 -94 30 -94h940q32 0 32 94t-32 94h-940q-30 0 -30 -94z M0 1097q0 -94 30 -95h439q32 0 32 95q0 94 -32 94h-439q-30 0 -30 -94zM0 1347q0 -94 30 -94h439q32 0 32 94t-32 94h-439q-30 0 -30 -94zM0 1598q0 -94 30 -94h439q32 0 32 94t-32 94h-439q-30 0 -30 -94zM752 345q0 -94 30 -94h689q33 0 33 94t-33 94h-689q-30 0 -30 -94z M752 1097q0 -94 30 -95h439q32 0 32 95q0 94 -32 94h-439q-30 0 -30 -94zM1002 94q0 -94 30 -94h690q32 0 32 94t-32 94h-690q-30 0 -30 -94zM1002 1347q0 -94 30 -94h439q33 0 33 94t-33 94h-439q-30 0 -30 -94zM1253 1598q0 -94 30 -94h439q32 0 32 94t-32 94h-439 q-30 0 -30 -94z" />
<glyph unicode="l" d="M0 94q0 -94 30 -94h1692q32 0 32 94t-32 94h-1692q-30 0 -30 -94zM0 345q0 -94 30 -94h439q32 0 32 94t-32 94h-439q-30 0 -30 -94zM0 595q0 -94 30 -94h439q32 0 32 94t-32 95h-439q-30 -1 -30 -95zM0 846q0 -94 30 -94h439q32 0 32 94t-32 94h-439q-30 0 -30 -94z M0 1097q0 -94 30 -95h439q32 0 32 95q0 94 -32 94h-439q-30 0 -30 -94zM0 1347q0 -94 30 -94h439q32 0 32 94t-32 94h-439q-30 0 -30 -94zM0 1598q0 -94 30 -94h439q32 0 32 94t-32 94h-439q-30 0 -30 -94z" />
<glyph unicode="m" d="M0 94q0 -94 30 -94h439q32 0 32 94t-32 94h-439q-30 0 -30 -94zM0 345q0 -94 30 -94h439q32 0 32 94t-32 94h-439q-30 0 -30 -94zM0 595q0 -94 30 -94h439q32 0 32 94t-32 95h-439q-30 -1 -30 -95zM0 846q0 -94 30 -94h1692q32 0 32 94t-32 94h-1692q-30 0 -30 -94z M0 1097q0 -94 30 -95h1692q32 0 32 95q0 94 -32 94h-1692q-30 0 -30 -94zM0 1347q0 -94 30 -94h690q32 0 32 94t-32 94h-690q-30 0 -30 -94zM0 1598q0 -94 30 -94h439q32 0 32 94t-32 94h-439q-30 0 -30 -94zM752 595q0 -94 30 -94h188q32 0 32 94t-32 95h-188 q-30 -1 -30 -95zM1002 1347q0 -94 30 -94h690q32 0 32 94t-32 94h-690q-30 0 -30 -94zM1253 94q0 -94 30 -94h439q32 0 32 94t-32 94h-439q-30 0 -30 -94zM1253 345q0 -94 30 -94h439q32 0 32 94t-32 94h-439q-30 0 -30 -94zM1253 595q0 -94 30 -94h439q32 0 32 94t-32 95 h-439q-30 -1 -30 -95zM1253 1598q0 -94 30 -94h439q32 0 32 94t-32 94h-439q-30 0 -30 -94z" />
<glyph unicode="n" d="M0 94q0 -94 30 -94h439q32 0 32 94t-32 94h-439q-30 0 -30 -94zM0 345q0 -94 30 -94h439q32 0 32 94t-32 94h-439q-30 0 -30 -94zM0 595q0 -94 30 -94h439q32 0 32 94t-32 95h-439q-30 -1 -30 -95zM0 846q0 -94 30 -94h1692q32 0 32 94t-32 94h-1692q-30 0 -30 -94z M0 1097q0 -94 30 -95h940q32 0 32 95q0 94 -32 94h-940q-30 0 -30 -94zM0 1347q0 -94 30 -94h690q32 0 32 94t-32 94h-690q-30 0 -30 -94zM0 1598q0 -94 30 -94h439q32 0 32 94t-32 94h-439q-30 0 -30 -94zM752 595q0 -94 30 -94h940q32 0 32 94t-32 95h-940q-30 -1 -30 -95 zM1002 345q0 -94 30 -94h690q32 0 32 94t-32 94h-690q-30 0 -30 -94zM1253 94q0 -94 30 -94h439q32 0 32 94t-32 94h-439q-30 0 -30 -94zM1253 1097q0 -94 30 -95h439q32 0 32 95q0 94 -32 94h-439q-30 0 -30 -94zM1253 1347q0 -94 30 -94h439q32 0 32 94t-32 94h-439 q-30 0 -30 -94zM1253 1598q0 -94 30 -94h439q32 0 32 94t-32 94h-439q-30 0 -30 -94z" />
<glyph unicode="o" d="M0 345q0 -94 30 -94h439q32 0 32 94t-32 94h-439q-30 0 -30 -94zM0 595q0 -94 30 -94h439q32 0 32 94t-32 95h-439q-30 -1 -30 -95zM0 846q0 -94 30 -94h439q32 0 32 94t-32 94h-439q-30 0 -30 -94zM0 1097q0 -94 30 -95h439q32 0 32 95q0 94 -32 94h-439q-30 0 -30 -94z M0 1347q0 -94 30 -94h439q32 0 32 94t-32 94h-439q-30 0 -30 -94zM251 94q0 -94 30 -94h1190q33 0 33 94t-33 94h-1190q-30 0 -30 -94zM251 1598q0 -94 30 -94h1190q33 0 33 94t-33 94h-1190q-30 0 -30 -94zM1253 345q0 -94 30 -94h439q32 0 32 94t-32 94h-439 q-30 0 -30 -94zM1253 595q0 -94 30 -94h439q32 0 32 94t-32 95h-439q-30 -1 -30 -95zM1253 846q0 -94 30 -94h439q32 0 32 94t-32 94h-439q-30 0 -30 -94zM1253 1097q0 -94 30 -95h439q32 0 32 95q0 94 -32 94h-439q-30 0 -30 -94zM1253 1347q0 -94 30 -94h439q32 0 32 94 t-32 94h-439q-30 0 -30 -94z" />
<glyph unicode="p" d="M0 94q0 -94 30 -94h439q32 0 32 94t-32 94h-439q-30 0 -30 -94zM0 345q0 -94 30 -94h439q32 0 32 94t-32 94h-439q-30 0 -30 -94zM0 595q0 -94 30 -94h1441q33 0 33 94t-33 95h-1441q-30 -1 -30 -95zM0 846q0 -94 30 -94h439q32 0 32 94t-32 94h-439q-30 0 -30 -94z M0 1097q0 -94 30 -95h439q32 0 32 95q0 94 -32 94h-439q-30 0 -30 -94zM0 1347q0 -94 30 -94h439q32 0 32 94t-32 94h-439q-30 0 -30 -94zM0 1598q0 -94 30 -94h1441q33 0 33 94t-33 94h-1441q-30 0 -30 -94zM1253 846q0 -94 30 -94h439q32 0 32 94t-32 94h-439 q-30 0 -30 -94zM1253 1097q0 -94 30 -95h439q32 0 32 95q0 94 -32 94h-439q-30 0 -30 -94zM1253 1347q0 -94 30 -94h439q32 0 32 94t-32 94h-439q-30 0 -30 -94z" />
<glyph unicode="q" d="M0 345q0 -94 30 -94h439q32 0 32 94t-32 94h-439q-30 0 -30 -94zM0 595q0 -94 30 -94h439q32 0 32 94t-32 95h-439q-30 -1 -30 -95zM0 846q0 -94 30 -94h439q32 0 32 94t-32 94h-439q-30 0 -30 -94zM0 1097q0 -94 30 -95h439q32 0 32 95q0 94 -32 94h-439q-30 0 -30 -94z M0 1347q0 -94 30 -94h439q32 0 32 94t-32 94h-439q-30 0 -30 -94zM251 94q0 -94 30 -94h940q32 0 32 94t-32 94h-940q-30 0 -30 -94zM251 1598q0 -94 30 -94h1190q33 0 33 94t-33 94h-1190q-30 0 -30 -94zM752 595q0 -94 30 -94h940q32 0 32 94t-32 95h-940q-30 -1 -30 -95z M1002 345q0 -94 30 -94h439q33 0 33 94t-33 94h-439q-30 0 -30 -94zM1253 846q0 -94 30 -94h439q32 0 32 94t-32 94h-439q-30 0 -30 -94zM1253 1097q0 -94 30 -95h439q32 0 32 95q0 94 -32 94h-439q-30 0 -30 -94zM1253 1347q0 -94 30 -94h439q32 0 32 94t-32 94h-439 q-30 0 -30 -94zM1504 94q0 -94 30 -94h188q32 0 32 94t-32 94h-188q-30 0 -30 -94z" />
<glyph unicode="r" d="M0 94q0 -94 30 -94h439q32 0 32 94t-32 94h-439q-30 0 -30 -94zM0 345q0 -94 30 -94h439q32 0 32 94t-32 94h-439q-30 0 -30 -94zM0 595q0 -94 30 -94h1191q32 0 32 94t-32 95h-1191q-30 -1 -30 -95zM0 846q0 -94 30 -94h439q32 0 32 94t-32 94h-439q-30 0 -30 -94z M0 1097q0 -94 30 -95h439q32 0 32 95q0 94 -32 94h-439q-30 0 -30 -94zM0 1347q0 -94 30 -94h439q32 0 32 94t-32 94h-439q-30 0 -30 -94zM0 1598q0 -94 30 -94h1441q33 0 33 94t-33 94h-1441q-30 0 -30 -94zM752 345q0 -94 30 -94h689q33 0 33 94t-33 94h-689 q-30 0 -30 -94zM1002 94q0 -94 30 -94h690q32 0 32 94t-32 94h-690q-30 0 -30 -94zM1002 846q0 -94 30 -94h690q32 0 32 94t-32 94h-690q-30 0 -30 -94zM1253 1097q0 -94 30 -95h439q32 0 32 95q0 94 -32 94h-439q-30 0 -30 -94zM1253 1347q0 -94 30 -94h439q32 0 32 94 t-32 94h-439q-30 0 -30 -94z" />
<glyph unicode="s" d="M0 345q0 -94 30 -94h439q32 0 32 94t-32 94h-439q-30 0 -30 -94zM0 1097q0 -94 30 -95h439q32 0 32 95q0 94 -32 94h-439q-30 0 -30 -94zM0 1347q0 -94 30 -94h439q32 0 32 94t-32 94h-439q-30 0 -30 -94zM251 94q0 -94 30 -94h1190q33 0 33 94t-33 94h-1190 q-30 0 -30 -94zM251 846q0 -94 30 -94h1190q33 0 33 94t-33 94h-1190q-30 0 -30 -94zM251 1598q0 -94 30 -94h940q32 0 32 94t-32 94h-940q-30 0 -30 -94zM1002 1347q0 -94 30 -94h439q33 0 33 94t-33 94h-439q-30 0 -30 -94zM1253 345q0 -94 30 -94h439q32 0 32 94t-32 94 h-439q-30 0 -30 -94zM1253 595q0 -94 30 -94h439q32 0 32 94t-32 95h-439q-30 -1 -30 -95z" />
<glyph unicode="t" d="M251 1598q0 -94 30 -94h1441q32 0 32 94t-32 94h-1441q-30 0 -30 -94zM752 94q0 -94 30 -94h439q32 0 32 94t-32 94h-439q-30 0 -30 -94zM752 345q0 -94 30 -94h439q32 0 32 94t-32 94h-439q-30 0 -30 -94zM752 595q0 -94 30 -94h439q32 0 32 94t-32 95h-439 q-30 -1 -30 -95zM752 846q0 -94 30 -94h439q32 0 32 94t-32 94h-439q-30 0 -30 -94zM752 1097q0 -94 30 -95h439q32 0 32 95q0 94 -32 94h-439q-30 0 -30 -94zM752 1347q0 -94 30 -94h439q32 0 32 94t-32 94h-439q-30 0 -30 -94z" />
<glyph unicode="u" d="M0 345q0 -94 30 -94h439q32 0 32 94t-32 94h-439q-30 0 -30 -94zM0 595q0 -94 30 -94h439q32 0 32 94t-32 95h-439q-30 -1 -30 -95zM0 846q0 -94 30 -94h439q32 0 32 94t-32 94h-439q-30 0 -30 -94zM0 1097q0 -94 30 -95h439q32 0 32 95q0 94 -32 94h-439q-30 0 -30 -94z M0 1347q0 -94 30 -94h439q32 0 32 94t-32 94h-439q-30 0 -30 -94zM0 1598q0 -94 30 -94h439q32 0 32 94t-32 94h-439q-30 0 -30 -94zM251 94q0 -94 30 -94h1190q33 0 33 94t-33 94h-1190q-30 0 -30 -94zM1253 345q0 -94 30 -94h439q32 0 32 94t-32 94h-439q-30 0 -30 -94z M1253 595q0 -94 30 -94h439q32 0 32 94t-32 95h-439q-30 -1 -30 -95zM1253 846q0 -94 30 -94h439q32 0 32 94t-32 94h-439q-30 0 -30 -94zM1253 1097q0 -94 30 -95h439q32 0 32 95q0 94 -32 94h-439q-30 0 -30 -94zM1253 1347q0 -94 30 -94h439q32 0 32 94t-32 94h-439 q-30 0 -30 -94zM1253 1598q0 -94 30 -94h439q32 0 32 94t-32 94h-439q-30 0 -30 -94z" />
<glyph unicode="v" d="M0 846q0 -94 30 -94h690q32 0 32 94t-32 94h-690q-30 0 -30 -94zM0 1097q0 -94 30 -95h439q32 0 32 95q0 94 -32 94h-439q-30 0 -30 -94zM0 1347q0 -94 30 -94h439q32 0 32 94t-32 94h-439q-30 0 -30 -94zM0 1598q0 -94 30 -94h439q32 0 32 94t-32 94h-439q-30 0 -30 -94 zM251 595q0 -94 30 -94h1190q33 0 33 94t-33 95h-1190q-30 -1 -30 -95zM501 345q0 -94 30 -94h690q32 0 32 94t-32 94h-690q-30 0 -30 -94zM752 94q0 -94 30 -94h188q32 0 32 94t-32 94h-188q-30 0 -30 -94zM1002 846q0 -94 30 -94h690q32 0 32 94t-32 94h-690 q-30 0 -30 -94zM1253 1097q0 -94 30 -95h439q32 0 32 95q0 94 -32 94h-439q-30 0 -30 -94zM1253 1347q0 -94 30 -94h439q32 0 32 94t-32 94h-439q-30 0 -30 -94zM1253 1598q0 -94 30 -94h439q32 0 32 94t-32 94h-439q-30 0 -30 -94z" />
<glyph unicode="w" d="M0 94q0 -94 30 -94h439q32 0 32 94t-32 94h-439q-30 0 -30 -94zM0 345q0 -94 30 -94h690q32 0 32 94t-32 94h-690q-30 0 -30 -94zM0 595q0 -94 30 -94h1692q32 0 32 94t-32 95h-1692q-30 -1 -30 -95zM0 846q0 -94 30 -94h439q32 0 32 94t-32 94h-439q-30 0 -30 -94z M0 1097q0 -94 30 -95h439q32 0 32 95q0 94 -32 94h-439q-30 0 -30 -94zM0 1347q0 -94 30 -94h439q32 0 32 94t-32 94h-439q-30 0 -30 -94zM0 1598q0 -94 30 -94h439q32 0 32 94t-32 94h-439q-30 0 -30 -94zM752 846q0 -94 30 -94h188q32 0 32 94t-32 94h-188q-30 0 -30 -94z M1002 345q0 -94 30 -94h690q32 0 32 94t-32 94h-690q-30 0 -30 -94zM1253 94q0 -94 30 -94h439q32 0 32 94t-32 94h-439q-30 0 -30 -94zM1253 846q0 -94 30 -94h439q32 0 32 94t-32 94h-439q-30 0 -30 -94zM1253 1097q0 -94 30 -95h439q32 0 32 95q0 94 -32 94h-439 q-30 0 -30 -94zM1253 1347q0 -94 30 -94h439q32 0 32 94t-32 94h-439q-30 0 -30 -94zM1253 1598q0 -94 30 -94h439q32 0 32 94t-32 94h-439q-30 0 -30 -94z" />
<glyph unicode="x" d="M0 94q0 -94 30 -94h439q32 0 32 94t-32 94h-439q-30 0 -30 -94zM0 345q0 -94 30 -94h690q32 0 32 94t-32 94h-690q-30 0 -30 -94zM0 1347q0 -94 30 -94h690q32 0 32 94t-32 94h-690q-30 0 -30 -94zM0 1598q0 -94 30 -94h439q32 0 32 94t-32 94h-439q-30 0 -30 -94z M251 595q0 -94 30 -94h1190q33 0 33 94t-33 95h-1190q-30 -1 -30 -95zM251 1097q0 -94 30 -95h1190q33 0 33 95q0 94 -33 94h-1190q-30 0 -30 -94zM501 846q0 -94 30 -94h690q32 0 32 94t-32 94h-690q-30 0 -30 -94zM1002 345q0 -94 30 -94h690q32 0 32 94t-32 94h-690 q-30 0 -30 -94zM1002 1347q0 -94 30 -94h690q32 0 32 94t-32 94h-690q-30 0 -30 -94zM1253 94q0 -94 30 -94h439q32 0 32 94t-32 94h-439q-30 0 -30 -94zM1253 1598q0 -94 30 -94h439q32 0 32 94t-32 94h-439q-30 0 -30 -94z" />
<glyph unicode="y" d="M251 1097q0 -94 30 -95h439q32 0 32 95q0 94 -32 94h-439q-30 0 -30 -94zM251 1347q0 -94 30 -94h439q32 0 32 94t-32 94h-439q-30 0 -30 -94zM251 1598q0 -94 30 -94h439q32 0 32 94t-32 94h-439q-30 0 -30 -94zM501 846q0 -94 30 -94h940q33 0 33 94t-33 94h-940 q-30 0 -30 -94zM752 94q0 -94 30 -94h439q32 0 32 94t-32 94h-439q-30 0 -30 -94zM752 345q0 -94 30 -94h439q32 0 32 94t-32 94h-439q-30 0 -30 -94zM752 595q0 -94 30 -94h439q32 0 32 94t-32 95h-439q-30 -1 -30 -95zM1253 1097q0 -94 30 -95h439q32 0 32 95q0 94 -32 94 h-439q-30 0 -30 -94zM1253 1347q0 -94 30 -94h439q32 0 32 94t-32 94h-439q-30 0 -30 -94zM1253 1598q0 -94 30 -94h439q32 0 32 94t-32 94h-439q-30 0 -30 -94z" />
<glyph unicode="z" d="M0 94q0 -94 30 -94h1692q32 0 32 94t-32 94h-1692q-30 0 -30 -94zM0 345q0 -94 30 -94h690q32 0 32 94t-32 94h-690q-30 0 -30 -94zM0 1598q0 -94 30 -94h1692q32 0 32 94t-32 94h-1692q-30 0 -30 -94zM251 595q0 -94 30 -94h689q32 0 32 94t-32 95h-689q-30 -1 -30 -95z M501 846q0 -94 30 -94h690q32 0 32 94t-32 94h-690q-30 0 -30 -94zM752 1097q0 -94 30 -95h689q33 0 33 95q0 94 -33 94h-689q-30 0 -30 -94zM1002 1347q0 -94 30 -94h690q32 0 32 94t-32 94h-690q-30 0 -30 -94z" />
<glyph unicode="{" d="M251 846q0 -94 30 -94h439q32 0 32 94t-32 94h-439q-30 0 -30 -94zM501 345q0 -94 30 -94h439q32 0 32 94t-32 94h-439q-30 0 -30 -94zM501 595q0 -94 30 -94h439q32 0 32 94t-32 95h-439q-30 -1 -30 -95zM501 1097q0 -94 30 -95h439q32 0 32 95q0 94 -32 94h-439 q-30 0 -30 -94zM501 1347q0 -94 30 -94h439q32 0 32 94t-32 94h-439q-30 0 -30 -94zM752 94q0 -94 30 -94h439q32 0 32 94t-32 94h-439q-30 0 -30 -94zM752 1598q0 -94 30 -94h439q32 0 32 94t-32 94h-439q-30 0 -30 -94z" />
<glyph unicode="|" d="M752 94q0 94 30 94h188q32 0 32 -94t-32 -94h-188q-30 0 -30 94zM752 345q0 94 30 94h188q32 0 32 -94t-32 -94h-188q-30 0 -30 94zM752 595q0 94 30 95h188q32 0 32 -95q0 -94 -32 -94h-188q-30 0 -30 94zM752 846q0 94 30 94h188q32 0 32 -94t-32 -94h-188 q-30 0 -30 94zM752 1097q0 94 30 94h188q32 0 32 -94t-32 -95h-188q-30 1 -30 95zM752 1347q0 94 30 94h188q32 0 32 -94t-32 -94h-188q-30 0 -30 94zM752 1598q0 94 30 94h188q32 0 32 -94t-32 -94h-188q-30 0 -30 94z" />
<glyph unicode="}" d="M501 94q0 -94 30 -94h439q32 0 32 94t-32 94h-439q-30 0 -30 -94zM501 1598q0 -94 30 -94h439q32 0 32 94t-32 94h-439q-30 0 -30 -94zM752 345q0 -94 30 -94h439q32 0 32 94t-32 94h-439q-30 0 -30 -94zM752 595q0 -94 30 -94h439q32 0 32 94t-32 95h-439 q-30 -1 -30 -95zM752 1097q0 -94 30 -95h439q32 0 32 95q0 94 -32 94h-439q-30 0 -30 -94zM752 1347q0 -94 30 -94h439q32 0 32 94t-32 94h-439q-30 0 -30 -94zM1002 846q0 -94 30 -94h439q33 0 33 94t-33 94h-439q-30 0 -30 -94z" />
<glyph unicode="~" d="M251 1347q0 94 30 94h188q32 0 32 -94t-32 -94h-188q-30 0 -30 94zM501 1598q0 94 30 94h439q32 0 32 -94t-32 -94h-439q-30 0 -30 94zM752 1347q0 94 30 94h439q32 0 32 -94t-32 -94h-439q-30 0 -30 94zM1253 1598q0 94 30 94h188q33 0 33 -94t-33 -94h-188 q-30 0 -30 94z" />
<glyph unicode="&#xa0;" />
<glyph unicode="&#xa9;" d="M0 345q0 -94 30 -94h189q32 0 32 94t-32 94h-189q-30 0 -30 -94zM0 595q0 -94 30 -94h189q32 0 32 94t-32 95h-189q-30 -1 -30 -95zM0 846q0 -94 30 -94h189q32 0 32 94t-32 94h-189q-30 0 -30 -94zM0 1097q0 -94 30 -95h189q32 0 32 95q0 94 -32 94h-189q-30 0 -30 -94z M0 1347q0 -94 30 -94h189q32 0 32 94t-32 94h-189q-30 0 -30 -94zM251 94q0 -94 30 -94h1190q33 0 33 94t-33 94h-1190q-30 0 -30 -94zM251 1598q0 -94 30 -94h1190q33 0 33 94t-33 94h-1190q-30 0 -30 -94zM501 595q0 -94 30 -94h690q32 0 32 94t-32 95h-690 q-30 -1 -30 -95zM501 846q0 -94 30 -94h189q32 0 32 94t-32 94h-189q-30 0 -30 -94zM501 1097q0 -94 30 -95h690q32 0 32 95q0 94 -32 94h-690q-30 0 -30 -94zM1504 345q0 -94 30 -94h188q32 0 32 94t-32 94h-188q-30 0 -30 -94zM1504 595q0 -94 30 -94h188q32 0 32 94 t-32 95h-188q-30 -1 -30 -95zM1504 846q0 -94 30 -94h188q32 0 32 94t-32 94h-188q-30 0 -30 -94zM1504 1097q0 -94 30 -95h188q32 0 32 95q0 94 -32 94h-188q-30 0 -30 -94zM1504 1347q0 -94 30 -94h188q32 0 32 94t-32 94h-188q-30 0 -30 -94z" />
<glyph unicode="&#xaa;" d="M0 94q0 -94 30 -94h439q32 0 32 94t-32 94h-439q-30 0 -30 -94zM0 345q0 -94 30 -94h439q32 0 32 94t-32 94h-439q-30 0 -30 -94zM0 595q0 -94 30 -94h1692q32 0 32 94t-32 95h-1692q-30 -1 -30 -95zM0 846q0 -94 30 -94h439q32 0 32 94t-32 94h-439q-30 0 -30 -94z M0 1097q0 -94 30 -95h439q32 0 32 95q0 94 -32 94h-439q-30 0 -30 -94zM251 1347q0 -94 30 -94h439q32 0 32 94t-32 94h-439q-30 0 -30 -94zM501 1598q0 -94 30 -94h690q32 0 32 94t-32 94h-690q-30 0 -30 -94zM1002 1347q0 -94 30 -94h439q33 0 33 94t-33 94h-439 q-30 0 -30 -94zM1253 94q0 -94 30 -94h439q32 0 32 94t-32 94h-439q-30 0 -30 -94zM1253 345q0 -94 30 -94h439q32 0 32 94t-32 94h-439q-30 0 -30 -94zM1253 846q0 -94 30 -94h439q32 0 32 94t-32 94h-439q-30 0 -30 -94zM1253 1097q0 -94 30 -95h439q32 0 32 95 q0 94 -32 94h-439q-30 0 -30 -94z" />
<glyph unicode="&#xad;" d="M251 846q0 -94 30 -94h1190q33 0 33 94t-33 94h-1190q-30 0 -30 -94z" />
<glyph unicode="&#xae;" d="M0 345q0 -94 30 -94h189q32 0 32 94t-32 94h-189q-30 0 -30 -94zM0 595q0 -94 30 -94h189q32 0 32 94t-32 95h-189q-30 -1 -30 -95zM0 846q0 -94 30 -94h189q32 0 32 94t-32 94h-189q-30 0 -30 -94zM0 1097q0 -94 30 -95h189q32 0 32 95q0 94 -32 94h-189q-30 0 -30 -94z M0 1347q0 -94 30 -94h189q32 0 32 94t-32 94h-189q-30 0 -30 -94zM251 94q0 -94 30 -94h1190q33 0 33 94t-33 94h-1190q-30 0 -30 -94zM251 1598q0 -94 30 -94h1190q33 0 33 94t-33 94h-1190q-30 0 -30 -94zM501 595q0 -94 30 -94h189q32 0 32 94t-32 95h-189 q-30 -1 -30 -95zM501 846q0 -94 30 -94h189q32 0 32 94t-32 94h-189q-30 0 -30 -94zM501 1097q0 -94 30 -95h690q32 0 32 95q0 94 -32 94h-690q-30 0 -30 -94zM1504 345q0 -94 30 -94h188q32 0 32 94t-32 94h-188q-30 0 -30 -94zM1504 595q0 -94 30 -94h188q32 0 32 94 t-32 95h-188q-30 -1 -30 -95zM1504 846q0 -94 30 -94h188q32 0 32 94t-32 94h-188q-30 0 -30 -94zM1504 1097q0 -94 30 -95h188q32 0 32 95q0 94 -32 94h-188q-30 0 -30 -94zM1504 1347q0 -94 30 -94h188q32 0 32 94t-32 94h-188q-30 0 -30 -94z" />
<glyph unicode="&#xb2;" d="M0 94q0 -94 30 -94h1692q32 0 32 94t-32 94h-1692q-30 0 -30 -94zM0 345q0 -94 30 -94h690q32 0 32 94t-32 94h-690q-30 0 -30 -94zM0 1347q0 -94 30 -94h439q32 0 32 94t-32 94h-439q-30 0 -30 -94zM251 595q0 -94 30 -94h940q32 0 32 94t-32 95h-940q-30 -1 -30 -95z M251 1598q0 -94 30 -94h1190q33 0 33 94t-33 94h-1190q-30 0 -30 -94zM501 846q0 -94 30 -94h940q33 0 33 94t-33 94h-940q-30 0 -30 -94zM1002 1097q0 -94 30 -95h690q32 0 32 95q0 94 -32 94h-690q-30 0 -30 -94zM1253 1347q0 -94 30 -94h439q32 0 32 94t-32 94h-439 q-30 0 -30 -94z" />
<glyph unicode="&#xb3;" d="M0 345q0 -94 30 -94h439q32 0 32 94t-32 94h-439q-30 0 -30 -94zM251 94q0 -94 30 -94h1190q33 0 33 94t-33 94h-1190q-30 0 -30 -94zM251 1598q0 -94 30 -94h1441q32 0 32 94t-32 94h-1441q-30 0 -30 -94zM501 846q0 -94 30 -94h940q33 0 33 94t-33 94h-940 q-30 0 -30 -94zM752 1097q0 -94 30 -95h439q32 0 32 95q0 94 -32 94h-439q-30 0 -30 -94zM1002 1347q0 -94 30 -94h439q33 0 33 94t-33 94h-439q-30 0 -30 -94zM1253 345q0 -94 30 -94h439q32 0 32 94t-32 94h-439q-30 0 -30 -94zM1253 595q0 -94 30 -94h439q32 0 32 94 t-32 95h-439q-30 -1 -30 -95z" />
<glyph unicode="&#xb9;" d="M251 94q0 -94 30 -94h1441q32 0 32 94t-32 94h-1441q-30 0 -30 -94zM501 1347q0 -94 30 -94h690q32 0 32 94t-32 94h-690q-30 0 -30 -94zM752 345q0 -94 30 -94h439q32 0 32 94t-32 94h-439q-30 0 -30 -94zM752 595q0 -94 30 -94h439q32 0 32 94t-32 95h-439 q-30 -1 -30 -95zM752 846q0 -94 30 -94h439q32 0 32 94t-32 94h-439q-30 0 -30 -94zM752 1097q0 -94 30 -95h439q32 0 32 95q0 94 -32 94h-439q-30 0 -30 -94zM752 1598q0 -94 30 -94h439q32 0 32 94t-32 94h-439q-30 0 -30 -94z" />
<glyph unicode="&#xba;" d="M0 345q0 -94 30 -94h439q32 0 32 94t-32 94h-439q-30 0 -30 -94zM0 595q0 -94 30 -94h439q32 0 32 94t-32 95h-439q-30 -1 -30 -95zM0 846q0 -94 30 -94h439q32 0 32 94t-32 94h-439q-30 0 -30 -94zM0 1097q0 -94 30 -95h439q32 0 32 95q0 94 -32 94h-439q-30 0 -30 -94z M0 1347q0 -94 30 -94h439q32 0 32 94t-32 94h-439q-30 0 -30 -94zM251 94q0 -94 30 -94h1190q33 0 33 94t-33 94h-1190q-30 0 -30 -94zM251 1598q0 -94 30 -94h1190q33 0 33 94t-33 94h-1190q-30 0 -30 -94zM1253 345q0 -94 30 -94h439q32 0 32 94t-32 94h-439 q-30 0 -30 -94zM1253 595q0 -94 30 -94h439q32 0 32 94t-32 95h-439q-30 -1 -30 -95zM1253 846q0 -94 30 -94h439q32 0 32 94t-32 94h-439q-30 0 -30 -94zM1253 1097q0 -94 30 -95h439q32 0 32 95q0 94 -32 94h-439q-30 0 -30 -94zM1253 1347q0 -94 30 -94h439q32 0 32 94 t-32 94h-439q-30 0 -30 -94z" />
<glyph unicode="&#xc0;" d="M501 2159q0 94 30 94h188q32 0 32 -94t-32 -94h-188q-30 0 -30 94zM751 1908q0 94 30 94h189q32 0 32 -94t-32 -94h-189q-30 0 -30 94zM0 94q0 -94 30 -94h439q32 0 32 94t-32 94h-439q-30 0 -30 -94zM0 345q0 -94 30 -94h439q32 0 32 94t-32 94h-439q-30 0 -30 -94z M0 595q0 -94 30 -94h1692q32 0 32 94t-32 95h-1692q-30 -1 -30 -95zM0 846q0 -94 30 -94h439q32 0 32 94t-32 94h-439q-30 0 -30 -94zM0 1097q0 -94 30 -95h439q32 0 32 95q0 94 -32 94h-439q-30 0 -30 -94zM251 1347q0 -94 30 -94h439q32 0 32 94t-32 94h-439 q-30 0 -30 -94zM501 1598q0 -94 30 -94h690q32 0 32 94t-32 94h-690q-30 0 -30 -94zM1002 1347q0 -94 30 -94h439q33 0 33 94t-33 94h-439q-30 0 -30 -94zM1253 94q0 -94 30 -94h439q32 0 32 94t-32 94h-439q-30 0 -30 -94zM1253 345q0 -94 30 -94h439q32 0 32 94t-32 94 h-439q-30 0 -30 -94zM1253 846q0 -94 30 -94h439q32 0 32 94t-32 94h-439q-30 0 -30 -94zM1253 1097q0 -94 30 -95h439q32 0 32 95q0 94 -32 94h-439q-30 0 -30 -94z" />
<glyph unicode="&#xc2;" d="M501 1908q0 94 30 94h189q32 0 32 -94t-32 -94h-189q-30 0 -30 94zM752 2159q0 94 30 94h188q32 0 32 -94t-32 -94h-188q-30 0 -30 94zM1002 1908q0 94 30 94h189q32 0 32 -94t-32 -94h-189q-30 0 -30 94zM0 94q0 -94 30 -94h439q32 0 32 94t-32 94h-439q-30 0 -30 -94z M0 345q0 -94 30 -94h439q32 0 32 94t-32 94h-439q-30 0 -30 -94zM0 595q0 -94 30 -94h1692q32 0 32 94t-32 95h-1692q-30 -1 -30 -95zM0 846q0 -94 30 -94h439q32 0 32 94t-32 94h-439q-30 0 -30 -94zM0 1097q0 -94 30 -95h439q32 0 32 95q0 94 -32 94h-439q-30 0 -30 -94z M251 1347q0 -94 30 -94h439q32 0 32 94t-32 94h-439q-30 0 -30 -94zM501 1598q0 -94 30 -94h690q32 0 32 94t-32 94h-690q-30 0 -30 -94zM1002 1347q0 -94 30 -94h439q33 0 33 94t-33 94h-439q-30 0 -30 -94zM1253 94q0 -94 30 -94h439q32 0 32 94t-32 94h-439 q-30 0 -30 -94zM1253 345q0 -94 30 -94h439q32 0 32 94t-32 94h-439q-30 0 -30 -94zM1253 846q0 -94 30 -94h439q32 0 32 94t-32 94h-439q-30 0 -30 -94zM1253 1097q0 -94 30 -95h439q32 0 32 95q0 94 -32 94h-439q-30 0 -30 -94z" />
<glyph unicode="&#xc3;" d="M251 1908q0 94 30 94h188q32 0 32 -94t-32 -94h-188q-30 0 -30 94zM501 2159q0 94 30 94h439q32 0 32 -94t-32 -94h-439q-30 0 -30 94zM752 1908q0 94 30 94h439q32 0 32 -94t-32 -94h-439q-30 0 -30 94zM1253 2159q0 94 30 94h188q33 0 33 -94t-33 -94h-188 q-30 0 -30 94zM0 94q0 -94 30 -94h439q32 0 32 94t-32 94h-439q-30 0 -30 -94zM0 345q0 -94 30 -94h439q32 0 32 94t-32 94h-439q-30 0 -30 -94zM0 595q0 -94 30 -94h1692q32 0 32 94t-32 95h-1692q-30 -1 -30 -95zM0 846q0 -94 30 -94h439q32 0 32 94t-32 94h-439 q-30 0 -30 -94zM0 1097q0 -94 30 -95h439q32 0 32 95q0 94 -32 94h-439q-30 0 -30 -94zM251 1347q0 -94 30 -94h439q32 0 32 94t-32 94h-439q-30 0 -30 -94zM501 1598q0 -94 30 -94h690q32 0 32 94t-32 94h-690q-30 0 -30 -94zM1002 1347q0 -94 30 -94h439q33 0 33 94 t-33 94h-439q-30 0 -30 -94zM1253 94q0 -94 30 -94h439q32 0 32 94t-32 94h-439q-30 0 -30 -94zM1253 345q0 -94 30 -94h439q32 0 32 94t-32 94h-439q-30 0 -30 -94zM1253 846q0 -94 30 -94h439q32 0 32 94t-32 94h-439q-30 0 -30 -94zM1253 1097q0 -94 30 -95h439 q32 0 32 95q0 94 -32 94h-439q-30 0 -30 -94z" />
<glyph unicode="&#xc8;" d="M501 2159q0 94 30 94h188q32 0 32 -94t-32 -94h-188q-30 0 -30 94zM751 1908q0 94 30 94h189q32 0 32 -94t-32 -94h-189q-30 0 -30 94zM0 94q0 -94 30 -94h1692q32 0 32 94t-32 94h-1692q-30 0 -30 -94zM0 345q0 -94 30 -94h439q32 0 32 94t-32 94h-439q-30 0 -30 -94z M0 595q0 -94 30 -94h439q32 0 32 94t-32 95h-439q-30 -1 -30 -95zM0 846q0 -94 30 -94h1441q33 0 33 94t-33 94h-1441q-30 0 -30 -94zM0 1097q0 -94 30 -95h439q32 0 32 95q0 94 -32 94h-439q-30 0 -30 -94zM0 1347q0 -94 30 -94h439q32 0 32 94t-32 94h-439q-30 0 -30 -94z M0 1598q0 -94 30 -94h1692q32 0 32 94t-32 94h-1692q-30 0 -30 -94z" />
<glyph unicode="&#xca;" d="M501 1908q0 94 30 94h189q32 0 32 -94t-32 -94h-189q-30 0 -30 94zM752 2159q0 94 30 94h188q32 0 32 -94t-32 -94h-188q-30 0 -30 94zM1002 1908q0 94 30 94h189q32 0 32 -94t-32 -94h-189q-30 0 -30 94zM0 94q0 -94 30 -94h1692q32 0 32 94t-32 94h-1692q-30 0 -30 -94 zM0 345q0 -94 30 -94h439q32 0 32 94t-32 94h-439q-30 0 -30 -94zM0 595q0 -94 30 -94h439q32 0 32 94t-32 95h-439q-30 -1 -30 -95zM0 846q0 -94 30 -94h1441q33 0 33 94t-33 94h-1441q-30 0 -30 -94zM0 1097q0 -94 30 -95h439q32 0 32 95q0 94 -32 94h-439q-30 0 -30 -94z M0 1347q0 -94 30 -94h439q32 0 32 94t-32 94h-439q-30 0 -30 -94zM0 1598q0 -94 30 -94h1692q32 0 32 94t-32 94h-1692q-30 0 -30 -94z" />
<glyph unicode="&#xcc;" d="M628 2159q0 94 30 94h188q32 0 32 -94t-32 -94h-188q-30 0 -30 94zM878 1908q0 94 30 94h189q32 0 32 -94t-32 -94h-189q-30 0 -30 94zM251 94q0 -94 30 -94h1441q32 0 32 94t-32 94h-1441q-30 0 -30 -94zM251 1598q0 -94 30 -94h1441q32 0 32 94t-32 94h-1441 q-30 0 -30 -94zM752 345q0 -94 30 -94h439q32 0 32 94t-32 94h-439q-30 0 -30 -94zM752 595q0 -94 30 -94h439q32 0 32 94t-32 95h-439q-30 -1 -30 -95zM752 846q0 -94 30 -94h439q32 0 32 94t-32 94h-439q-30 0 -30 -94zM752 1097q0 -94 30 -95h439q32 0 32 95q0 94 -32 94 h-439q-30 0 -30 -94zM752 1347q0 -94 30 -94h439q32 0 32 94t-32 94h-439q-30 0 -30 -94z" />
<glyph unicode="&#xce;" d="M625 1908q0 94 30 94h189q32 0 32 -94t-32 -94h-189q-30 0 -30 94zM876 2159q0 94 30 94h188q32 0 32 -94t-32 -94h-188q-30 0 -30 94zM1126 1908q0 94 30 94h189q32 0 32 -94t-32 -94h-189q-30 0 -30 94zM251 94q0 -94 30 -94h1441q32 0 32 94t-32 94h-1441 q-30 0 -30 -94zM251 1598q0 -94 30 -94h1441q32 0 32 94t-32 94h-1441q-30 0 -30 -94zM752 345q0 -94 30 -94h439q32 0 32 94t-32 94h-439q-30 0 -30 -94zM752 595q0 -94 30 -94h439q32 0 32 94t-32 95h-439q-30 -1 -30 -95zM752 846q0 -94 30 -94h439q32 0 32 94t-32 94 h-439q-30 0 -30 -94zM752 1097q0 -94 30 -95h439q32 0 32 95q0 94 -32 94h-439q-30 0 -30 -94zM752 1347q0 -94 30 -94h439q32 0 32 94t-32 94h-439q-30 0 -30 -94z" />
<glyph unicode="&#xd1;" d="M251 1908q0 94 30 94h188q32 0 32 -94t-32 -94h-188q-30 0 -30 94zM501 2159q0 94 30 94h439q32 0 32 -94t-32 -94h-439q-30 0 -30 94zM752 1908q0 94 30 94h439q32 0 32 -94t-32 -94h-439q-30 0 -30 94zM1253 2159q0 94 30 94h188q33 0 33 -94t-33 -94h-188 q-30 0 -30 94zM0 94q0 -94 30 -94h439q32 0 32 94t-32 94h-439q-30 0 -30 -94zM0 345q0 -94 30 -94h439q32 0 32 94t-32 94h-439q-30 0 -30 -94zM0 595q0 -94 30 -94h439q32 0 32 94t-32 95h-439q-30 -1 -30 -95zM0 846q0 -94 30 -94h1692q32 0 32 94t-32 94h-1692 q-30 0 -30 -94zM0 1097q0 -94 30 -95h940q32 0 32 95q0 94 -32 94h-940q-30 0 -30 -94zM0 1347q0 -94 30 -94h690q32 0 32 94t-32 94h-690q-30 0 -30 -94zM0 1598q0 -94 30 -94h439q32 0 32 94t-32 94h-439q-30 0 -30 -94zM752 595q0 -94 30 -94h940q32 0 32 94t-32 95h-940 q-30 -1 -30 -95zM1002 345q0 -94 30 -94h690q32 0 32 94t-32 94h-690q-30 0 -30 -94zM1253 94q0 -94 30 -94h439q32 0 32 94t-32 94h-439q-30 0 -30 -94zM1253 1097q0 -94 30 -95h439q32 0 32 95q0 94 -32 94h-439q-30 0 -30 -94zM1253 1347q0 -94 30 -94h439q32 0 32 94 t-32 94h-439q-30 0 -30 -94zM1253 1598q0 -94 30 -94h439q32 0 32 94t-32 94h-439q-30 0 -30 -94z" />
<glyph unicode="&#xd2;" d="M501 2159q0 94 30 94h188q32 0 32 -94t-32 -94h-188q-30 0 -30 94zM751 1908q0 94 30 94h189q32 0 32 -94t-32 -94h-189q-30 0 -30 94zM0 345q0 -94 30 -94h439q32 0 32 94t-32 94h-439q-30 0 -30 -94zM0 595q0 -94 30 -94h439q32 0 32 94t-32 95h-439q-30 -1 -30 -95z M0 846q0 -94 30 -94h439q32 0 32 94t-32 94h-439q-30 0 -30 -94zM0 1097q0 -94 30 -95h439q32 0 32 95q0 94 -32 94h-439q-30 0 -30 -94zM0 1347q0 -94 30 -94h439q32 0 32 94t-32 94h-439q-30 0 -30 -94zM251 94q0 -94 30 -94h1190q33 0 33 94t-33 94h-1190q-30 0 -30 -94z M251 1598q0 -94 30 -94h1190q33 0 33 94t-33 94h-1190q-30 0 -30 -94zM1253 345q0 -94 30 -94h439q32 0 32 94t-32 94h-439q-30 0 -30 -94zM1253 595q0 -94 30 -94h439q32 0 32 94t-32 95h-439q-30 -1 -30 -95zM1253 846q0 -94 30 -94h439q32 0 32 94t-32 94h-439 q-30 0 -30 -94zM1253 1097q0 -94 30 -95h439q32 0 32 95q0 94 -32 94h-439q-30 0 -30 -94zM1253 1347q0 -94 30 -94h439q32 0 32 94t-32 94h-439q-30 0 -30 -94z" />
<glyph unicode="&#xd4;" d="M501 1908q0 94 30 94h189q32 0 32 -94t-32 -94h-189q-30 0 -30 94zM752 2159q0 94 30 94h188q32 0 32 -94t-32 -94h-188q-30 0 -30 94zM1002 1908q0 94 30 94h189q32 0 32 -94t-32 -94h-189q-30 0 -30 94zM0 345q0 -94 30 -94h439q32 0 32 94t-32 94h-439q-30 0 -30 -94z M0 595q0 -94 30 -94h439q32 0 32 94t-32 95h-439q-30 -1 -30 -95zM0 846q0 -94 30 -94h439q32 0 32 94t-32 94h-439q-30 0 -30 -94zM0 1097q0 -94 30 -95h439q32 0 32 95q0 94 -32 94h-439q-30 0 -30 -94zM0 1347q0 -94 30 -94h439q32 0 32 94t-32 94h-439q-30 0 -30 -94z M251 94q0 -94 30 -94h1190q33 0 33 94t-33 94h-1190q-30 0 -30 -94zM251 1598q0 -94 30 -94h1190q33 0 33 94t-33 94h-1190q-30 0 -30 -94zM1253 345q0 -94 30 -94h439q32 0 32 94t-32 94h-439q-30 0 -30 -94zM1253 595q0 -94 30 -94h439q32 0 32 94t-32 95h-439 q-30 -1 -30 -95zM1253 846q0 -94 30 -94h439q32 0 32 94t-32 94h-439q-30 0 -30 -94zM1253 1097q0 -94 30 -95h439q32 0 32 95q0 94 -32 94h-439q-30 0 -30 -94zM1253 1347q0 -94 30 -94h439q32 0 32 94t-32 94h-439q-30 0 -30 -94z" />
<glyph unicode="&#xd5;" d="M251 1908q0 94 30 94h188q32 0 32 -94t-32 -94h-188q-30 0 -30 94zM501 2159q0 94 30 94h439q32 0 32 -94t-32 -94h-439q-30 0 -30 94zM752 1908q0 94 30 94h439q32 0 32 -94t-32 -94h-439q-30 0 -30 94zM1253 2159q0 94 30 94h188q33 0 33 -94t-33 -94h-188 q-30 0 -30 94zM0 345q0 -94 30 -94h439q32 0 32 94t-32 94h-439q-30 0 -30 -94zM0 595q0 -94 30 -94h439q32 0 32 94t-32 95h-439q-30 -1 -30 -95zM0 846q0 -94 30 -94h439q32 0 32 94t-32 94h-439q-30 0 -30 -94zM0 1097q0 -94 30 -95h439q32 0 32 95q0 94 -32 94h-439 q-30 0 -30 -94zM0 1347q0 -94 30 -94h439q32 0 32 94t-32 94h-439q-30 0 -30 -94zM251 94q0 -94 30 -94h1190q33 0 33 94t-33 94h-1190q-30 0 -30 -94zM251 1598q0 -94 30 -94h1190q33 0 33 94t-33 94h-1190q-30 0 -30 -94zM1253 345q0 -94 30 -94h439q32 0 32 94t-32 94 h-439q-30 0 -30 -94zM1253 595q0 -94 30 -94h439q32 0 32 94t-32 95h-439q-30 -1 -30 -95zM1253 846q0 -94 30 -94h439q32 0 32 94t-32 94h-439q-30 0 -30 -94zM1253 1097q0 -94 30 -95h439q32 0 32 95q0 94 -32 94h-439q-30 0 -30 -94zM1253 1347q0 -94 30 -94h439 q32 0 32 94t-32 94h-439q-30 0 -30 -94z" />
<glyph unicode="&#xd9;" d="M501 2159q0 94 30 94h188q32 0 32 -94t-32 -94h-188q-30 0 -30 94zM751 1908q0 94 30 94h189q32 0 32 -94t-32 -94h-189q-30 0 -30 94zM0 345q0 -94 30 -94h439q32 0 32 94t-32 94h-439q-30 0 -30 -94zM0 595q0 -94 30 -94h439q32 0 32 94t-32 95h-439q-30 -1 -30 -95z M0 846q0 -94 30 -94h439q32 0 32 94t-32 94h-439q-30 0 -30 -94zM0 1097q0 -94 30 -95h439q32 0 32 95q0 94 -32 94h-439q-30 0 -30 -94zM0 1347q0 -94 30 -94h439q32 0 32 94t-32 94h-439q-30 0 -30 -94zM0 1598q0 -94 30 -94h439q32 0 32 94t-32 94h-439q-30 0 -30 -94z M251 94q0 -94 30 -94h1190q33 0 33 94t-33 94h-1190q-30 0 -30 -94zM1253 345q0 -94 30 -94h439q32 0 32 94t-32 94h-439q-30 0 -30 -94zM1253 595q0 -94 30 -94h439q32 0 32 94t-32 95h-439q-30 -1 -30 -95zM1253 846q0 -94 30 -94h439q32 0 32 94t-32 94h-439 q-30 0 -30 -94zM1253 1097q0 -94 30 -95h439q32 0 32 95q0 94 -32 94h-439q-30 0 -30 -94zM1253 1347q0 -94 30 -94h439q32 0 32 94t-32 94h-439q-30 0 -30 -94zM1253 1598q0 -94 30 -94h439q32 0 32 94t-32 94h-439q-30 0 -30 -94z" />
<glyph unicode="&#xdb;" d="M501 1908q0 94 30 94h189q32 0 32 -94t-32 -94h-189q-30 0 -30 94zM752 2159q0 94 30 94h188q32 0 32 -94t-32 -94h-188q-30 0 -30 94zM1002 1908q0 94 30 94h189q32 0 32 -94t-32 -94h-189q-30 0 -30 94zM0 345q0 -94 30 -94h439q32 0 32 94t-32 94h-439q-30 0 -30 -94z M0 595q0 -94 30 -94h439q32 0 32 94t-32 95h-439q-30 -1 -30 -95zM0 846q0 -94 30 -94h439q32 0 32 94t-32 94h-439q-30 0 -30 -94zM0 1097q0 -94 30 -95h439q32 0 32 95q0 94 -32 94h-439q-30 0 -30 -94zM0 1347q0 -94 30 -94h439q32 0 32 94t-32 94h-439q-30 0 -30 -94z M0 1598q0 -94 30 -94h439q32 0 32 94t-32 94h-439q-30 0 -30 -94zM251 94q0 -94 30 -94h1190q33 0 33 94t-33 94h-1190q-30 0 -30 -94zM1253 345q0 -94 30 -94h439q32 0 32 94t-32 94h-439q-30 0 -30 -94zM1253 595q0 -94 30 -94h439q32 0 32 94t-32 95h-439q-30 -1 -30 -95 zM1253 846q0 -94 30 -94h439q32 0 32 94t-32 94h-439q-30 0 -30 -94zM1253 1097q0 -94 30 -95h439q32 0 32 95q0 94 -32 94h-439q-30 0 -30 -94zM1253 1347q0 -94 30 -94h439q32 0 32 94t-32 94h-439q-30 0 -30 -94zM1253 1598q0 -94 30 -94h439q32 0 32 94t-32 94h-439 q-30 0 -30 -94z" />
<glyph unicode="&#xdf;" d="M0 94q0 -94 30 -94h1692q32 0 32 94t-32 94h-1692q-30 0 -30 -94zM0 345q0 -94 30 -94h1692q32 0 32 94t-32 94h-1692q-30 0 -30 -94zM0 595q0 -94 30 -94h1692q32 0 32 94t-32 95h-1692q-30 -1 -30 -95zM0 846q0 -94 30 -94h1692q32 0 32 94t-32 94h-1692q-30 0 -30 -94 zM0 1097q0 -94 30 -95h1692q32 0 32 95q0 94 -32 94h-1692q-30 0 -30 -94zM0 1347q0 -94 30 -94h1692q32 0 32 94t-32 94h-1692q-30 0 -30 -94zM0 1598q0 -94 30 -94h1692q32 0 32 94t-32 94h-1692q-30 0 -30 -94z" />
<glyph unicode="&#xe0;" d="M501 2159q0 94 30 94h188q32 0 32 -94t-32 -94h-188q-30 0 -30 94zM751 1908q0 94 30 94h189q32 0 32 -94t-32 -94h-189q-30 0 -30 94zM0 94q0 -94 30 -94h439q32 0 32 94t-32 94h-439q-30 0 -30 -94zM0 345q0 -94 30 -94h439q32 0 32 94t-32 94h-439q-30 0 -30 -94z M0 595q0 -94 30 -94h1692q32 0 32 94t-32 95h-1692q-30 -1 -30 -95zM0 846q0 -94 30 -94h439q32 0 32 94t-32 94h-439q-30 0 -30 -94zM0 1097q0 -94 30 -95h439q32 0 32 95q0 94 -32 94h-439q-30 0 -30 -94zM251 1347q0 -94 30 -94h439q32 0 32 94t-32 94h-439 q-30 0 -30 -94zM501 1598q0 -94 30 -94h690q32 0 32 94t-32 94h-690q-30 0 -30 -94zM1002 1347q0 -94 30 -94h439q33 0 33 94t-33 94h-439q-30 0 -30 -94zM1253 94q0 -94 30 -94h439q32 0 32 94t-32 94h-439q-30 0 -30 -94zM1253 345q0 -94 30 -94h439q32 0 32 94t-32 94 h-439q-30 0 -30 -94zM1253 846q0 -94 30 -94h439q32 0 32 94t-32 94h-439q-30 0 -30 -94zM1253 1097q0 -94 30 -95h439q32 0 32 95q0 94 -32 94h-439q-30 0 -30 -94z" />
<glyph unicode="&#xe2;" d="M501 1908q0 94 30 94h189q32 0 32 -94t-32 -94h-189q-30 0 -30 94zM752 2159q0 94 30 94h188q32 0 32 -94t-32 -94h-188q-30 0 -30 94zM1002 1908q0 94 30 94h189q32 0 32 -94t-32 -94h-189q-30 0 -30 94zM0 94q0 -94 30 -94h439q32 0 32 94t-32 94h-439q-30 0 -30 -94z M0 345q0 -94 30 -94h439q32 0 32 94t-32 94h-439q-30 0 -30 -94zM0 595q0 -94 30 -94h1692q32 0 32 94t-32 95h-1692q-30 -1 -30 -95zM0 846q0 -94 30 -94h439q32 0 32 94t-32 94h-439q-30 0 -30 -94zM0 1097q0 -94 30 -95h439q32 0 32 95q0 94 -32 94h-439q-30 0 -30 -94z M251 1347q0 -94 30 -94h439q32 0 32 94t-32 94h-439q-30 0 -30 -94zM501 1598q0 -94 30 -94h690q32 0 32 94t-32 94h-690q-30 0 -30 -94zM1002 1347q0 -94 30 -94h439q33 0 33 94t-33 94h-439q-30 0 -30 -94zM1253 94q0 -94 30 -94h439q32 0 32 94t-32 94h-439 q-30 0 -30 -94zM1253 345q0 -94 30 -94h439q32 0 32 94t-32 94h-439q-30 0 -30 -94zM1253 846q0 -94 30 -94h439q32 0 32 94t-32 94h-439q-30 0 -30 -94zM1253 1097q0 -94 30 -95h439q32 0 32 95q0 94 -32 94h-439q-30 0 -30 -94z" />
<glyph unicode="&#xe3;" d="M251 1908q0 94 30 94h188q32 0 32 -94t-32 -94h-188q-30 0 -30 94zM501 2159q0 94 30 94h439q32 0 32 -94t-32 -94h-439q-30 0 -30 94zM752 1908q0 94 30 94h439q32 0 32 -94t-32 -94h-439q-30 0 -30 94zM1253 2159q0 94 30 94h188q33 0 33 -94t-33 -94h-188 q-30 0 -30 94zM0 94q0 -94 30 -94h439q32 0 32 94t-32 94h-439q-30 0 -30 -94zM0 345q0 -94 30 -94h439q32 0 32 94t-32 94h-439q-30 0 -30 -94zM0 595q0 -94 30 -94h1692q32 0 32 94t-32 95h-1692q-30 -1 -30 -95zM0 846q0 -94 30 -94h439q32 0 32 94t-32 94h-439 q-30 0 -30 -94zM0 1097q0 -94 30 -95h439q32 0 32 95q0 94 -32 94h-439q-30 0 -30 -94zM251 1347q0 -94 30 -94h439q32 0 32 94t-32 94h-439q-30 0 -30 -94zM501 1598q0 -94 30 -94h690q32 0 32 94t-32 94h-690q-30 0 -30 -94zM1002 1347q0 -94 30 -94h439q33 0 33 94 t-33 94h-439q-30 0 -30 -94zM1253 94q0 -94 30 -94h439q32 0 32 94t-32 94h-439q-30 0 -30 -94zM1253 345q0 -94 30 -94h439q32 0 32 94t-32 94h-439q-30 0 -30 -94zM1253 846q0 -94 30 -94h439q32 0 32 94t-32 94h-439q-30 0 -30 -94zM1253 1097q0 -94 30 -95h439 q32 0 32 95q0 94 -32 94h-439q-30 0 -30 -94z" />
<glyph unicode="&#xe5;" d="M0 94q0 -94 30 -94h1692q32 0 32 94t-32 94h-1692q-30 0 -30 -94zM0 345q0 -94 30 -94h1692q32 0 32 94t-32 94h-1692q-30 0 -30 -94zM0 595q0 -94 30 -94h1692q32 0 32 94t-32 95h-1692q-30 -1 -30 -95zM501 846q0 -94 30 -94h690q32 0 32 94t-32 94h-690q-30 0 -30 -94 zM501 1097q0 -94 30 -95h690q32 0 32 95q0 94 -32 94h-690q-30 0 -30 -94zM501 1347q0 -94 30 -94h690q32 0 32 94t-32 94h-690q-30 0 -30 -94zM752 1598q0 -94 30 -94h188q32 0 32 94t-32 94h-188q-30 0 -30 -94z" />
<glyph unicode="&#xe8;" d="M501 2159q0 94 30 94h188q32 0 32 -94t-32 -94h-188q-30 0 -30 94zM751 1908q0 94 30 94h189q32 0 32 -94t-32 -94h-189q-30 0 -30 94zM0 94q0 -94 30 -94h1692q32 0 32 94t-32 94h-1692q-30 0 -30 -94zM0 345q0 -94 30 -94h439q32 0 32 94t-32 94h-439q-30 0 -30 -94z M0 595q0 -94 30 -94h439q32 0 32 94t-32 95h-439q-30 -1 -30 -95zM0 846q0 -94 30 -94h1441q33 0 33 94t-33 94h-1441q-30 0 -30 -94zM0 1097q0 -94 30 -95h439q32 0 32 95q0 94 -32 94h-439q-30 0 -30 -94zM0 1347q0 -94 30 -94h439q32 0 32 94t-32 94h-439q-30 0 -30 -94z M0 1598q0 -94 30 -94h1692q32 0 32 94t-32 94h-1692q-30 0 -30 -94z" />
<glyph unicode="&#xea;" d="M501 1908q0 94 30 94h189q32 0 32 -94t-32 -94h-189q-30 0 -30 94zM752 2159q0 94 30 94h188q32 0 32 -94t-32 -94h-188q-30 0 -30 94zM1002 1908q0 94 30 94h189q32 0 32 -94t-32 -94h-189q-30 0 -30 94zM0 94q0 -94 30 -94h1692q32 0 32 94t-32 94h-1692q-30 0 -30 -94 zM0 345q0 -94 30 -94h439q32 0 32 94t-32 94h-439q-30 0 -30 -94zM0 595q0 -94 30 -94h439q32 0 32 94t-32 95h-439q-30 -1 -30 -95zM0 846q0 -94 30 -94h1441q33 0 33 94t-33 94h-1441q-30 0 -30 -94zM0 1097q0 -94 30 -95h439q32 0 32 95q0 94 -32 94h-439q-30 0 -30 -94z M0 1347q0 -94 30 -94h439q32 0 32 94t-32 94h-439q-30 0 -30 -94zM0 1598q0 -94 30 -94h1692q32 0 32 94t-32 94h-1692q-30 0 -30 -94z" />
<glyph unicode="&#xec;" d="M628 2159q0 94 30 94h188q32 0 32 -94t-32 -94h-188q-30 0 -30 94zM878 1908q0 94 30 94h189q32 0 32 -94t-32 -94h-189q-30 0 -30 94zM251 94q0 -94 30 -94h1441q32 0 32 94t-32 94h-1441q-30 0 -30 -94zM251 1598q0 -94 30 -94h1441q32 0 32 94t-32 94h-1441 q-30 0 -30 -94zM752 345q0 -94 30 -94h439q32 0 32 94t-32 94h-439q-30 0 -30 -94zM752 595q0 -94 30 -94h439q32 0 32 94t-32 95h-439q-30 -1 -30 -95zM752 846q0 -94 30 -94h439q32 0 32 94t-32 94h-439q-30 0 -30 -94zM752 1097q0 -94 30 -95h439q32 0 32 95q0 94 -32 94 h-439q-30 0 -30 -94zM752 1347q0 -94 30 -94h439q32 0 32 94t-32 94h-439q-30 0 -30 -94z" />
<glyph unicode="&#xee;" d="M625 1908q0 94 30 94h189q32 0 32 -94t-32 -94h-189q-30 0 -30 94zM876 2159q0 94 30 94h188q32 0 32 -94t-32 -94h-188q-30 0 -30 94zM1126 1908q0 94 30 94h189q32 0 32 -94t-32 -94h-189q-30 0 -30 94zM251 94q0 -94 30 -94h1441q32 0 32 94t-32 94h-1441 q-30 0 -30 -94zM251 1598q0 -94 30 -94h1441q32 0 32 94t-32 94h-1441q-30 0 -30 -94zM752 345q0 -94 30 -94h439q32 0 32 94t-32 94h-439q-30 0 -30 -94zM752 595q0 -94 30 -94h439q32 0 32 94t-32 95h-439q-30 -1 -30 -95zM752 846q0 -94 30 -94h439q32 0 32 94t-32 94 h-439q-30 0 -30 -94zM752 1097q0 -94 30 -95h439q32 0 32 95q0 94 -32 94h-439q-30 0 -30 -94zM752 1347q0 -94 30 -94h439q32 0 32 94t-32 94h-439q-30 0 -30 -94z" />
<glyph unicode="&#xf1;" d="M251 1908q0 94 30 94h188q32 0 32 -94t-32 -94h-188q-30 0 -30 94zM501 2159q0 94 30 94h439q32 0 32 -94t-32 -94h-439q-30 0 -30 94zM752 1908q0 94 30 94h439q32 0 32 -94t-32 -94h-439q-30 0 -30 94zM1253 2159q0 94 30 94h188q33 0 33 -94t-33 -94h-188 q-30 0 -30 94zM0 94q0 -94 30 -94h439q32 0 32 94t-32 94h-439q-30 0 -30 -94zM0 345q0 -94 30 -94h439q32 0 32 94t-32 94h-439q-30 0 -30 -94zM0 595q0 -94 30 -94h439q32 0 32 94t-32 95h-439q-30 -1 -30 -95zM0 846q0 -94 30 -94h1692q32 0 32 94t-32 94h-1692 q-30 0 -30 -94zM0 1097q0 -94 30 -95h940q32 0 32 95q0 94 -32 94h-940q-30 0 -30 -94zM0 1347q0 -94 30 -94h690q32 0 32 94t-32 94h-690q-30 0 -30 -94zM0 1598q0 -94 30 -94h439q32 0 32 94t-32 94h-439q-30 0 -30 -94zM752 595q0 -94 30 -94h940q32 0 32 94t-32 95h-940 q-30 -1 -30 -95zM1002 345q0 -94 30 -94h690q32 0 32 94t-32 94h-690q-30 0 -30 -94zM1253 94q0 -94 30 -94h439q32 0 32 94t-32 94h-439q-30 0 -30 -94zM1253 1097q0 -94 30 -95h439q32 0 32 95q0 94 -32 94h-439q-30 0 -30 -94zM1253 1347q0 -94 30 -94h439q32 0 32 94 t-32 94h-439q-30 0 -30 -94zM1253 1598q0 -94 30 -94h439q32 0 32 94t-32 94h-439q-30 0 -30 -94z" />
<glyph unicode="&#xf2;" d="M501 2159q0 94 30 94h188q32 0 32 -94t-32 -94h-188q-30 0 -30 94zM751 1908q0 94 30 94h189q32 0 32 -94t-32 -94h-189q-30 0 -30 94zM0 345q0 -94 30 -94h439q32 0 32 94t-32 94h-439q-30 0 -30 -94zM0 595q0 -94 30 -94h439q32 0 32 94t-32 95h-439q-30 -1 -30 -95z M0 846q0 -94 30 -94h439q32 0 32 94t-32 94h-439q-30 0 -30 -94zM0 1097q0 -94 30 -95h439q32 0 32 95q0 94 -32 94h-439q-30 0 -30 -94zM0 1347q0 -94 30 -94h439q32 0 32 94t-32 94h-439q-30 0 -30 -94zM251 94q0 -94 30 -94h1190q33 0 33 94t-33 94h-1190q-30 0 -30 -94z M251 1598q0 -94 30 -94h1190q33 0 33 94t-33 94h-1190q-30 0 -30 -94zM1253 345q0 -94 30 -94h439q32 0 32 94t-32 94h-439q-30 0 -30 -94zM1253 595q0 -94 30 -94h439q32 0 32 94t-32 95h-439q-30 -1 -30 -95zM1253 846q0 -94 30 -94h439q32 0 32 94t-32 94h-439 q-30 0 -30 -94zM1253 1097q0 -94 30 -95h439q32 0 32 95q0 94 -32 94h-439q-30 0 -30 -94zM1253 1347q0 -94 30 -94h439q32 0 32 94t-32 94h-439q-30 0 -30 -94z" />
<glyph unicode="&#xf4;" d="M501 1908q0 94 30 94h189q32 0 32 -94t-32 -94h-189q-30 0 -30 94zM752 2159q0 94 30 94h188q32 0 32 -94t-32 -94h-188q-30 0 -30 94zM1002 1908q0 94 30 94h189q32 0 32 -94t-32 -94h-189q-30 0 -30 94zM0 345q0 -94 30 -94h439q32 0 32 94t-32 94h-439q-30 0 -30 -94z M0 595q0 -94 30 -94h439q32 0 32 94t-32 95h-439q-30 -1 -30 -95zM0 846q0 -94 30 -94h439q32 0 32 94t-32 94h-439q-30 0 -30 -94zM0 1097q0 -94 30 -95h439q32 0 32 95q0 94 -32 94h-439q-30 0 -30 -94zM0 1347q0 -94 30 -94h439q32 0 32 94t-32 94h-439q-30 0 -30 -94z M251 94q0 -94 30 -94h1190q33 0 33 94t-33 94h-1190q-30 0 -30 -94zM251 1598q0 -94 30 -94h1190q33 0 33 94t-33 94h-1190q-30 0 -30 -94zM1253 345q0 -94 30 -94h439q32 0 32 94t-32 94h-439q-30 0 -30 -94zM1253 595q0 -94 30 -94h439q32 0 32 94t-32 95h-439 q-30 -1 -30 -95zM1253 846q0 -94 30 -94h439q32 0 32 94t-32 94h-439q-30 0 -30 -94zM1253 1097q0 -94 30 -95h439q32 0 32 95q0 94 -32 94h-439q-30 0 -30 -94zM1253 1347q0 -94 30 -94h439q32 0 32 94t-32 94h-439q-30 0 -30 -94z" />
<glyph unicode="&#xf5;" d="M251 1908q0 94 30 94h188q32 0 32 -94t-32 -94h-188q-30 0 -30 94zM501 2159q0 94 30 94h439q32 0 32 -94t-32 -94h-439q-30 0 -30 94zM752 1908q0 94 30 94h439q32 0 32 -94t-32 -94h-439q-30 0 -30 94zM1253 2159q0 94 30 94h188q33 0 33 -94t-33 -94h-188 q-30 0 -30 94zM0 345q0 -94 30 -94h439q32 0 32 94t-32 94h-439q-30 0 -30 -94zM0 595q0 -94 30 -94h439q32 0 32 94t-32 95h-439q-30 -1 -30 -95zM0 846q0 -94 30 -94h439q32 0 32 94t-32 94h-439q-30 0 -30 -94zM0 1097q0 -94 30 -95h439q32 0 32 95q0 94 -32 94h-439 q-30 0 -30 -94zM0 1347q0 -94 30 -94h439q32 0 32 94t-32 94h-439q-30 0 -30 -94zM251 94q0 -94 30 -94h1190q33 0 33 94t-33 94h-1190q-30 0 -30 -94zM251 1598q0 -94 30 -94h1190q33 0 33 94t-33 94h-1190q-30 0 -30 -94zM1253 345q0 -94 30 -94h439q32 0 32 94t-32 94 h-439q-30 0 -30 -94zM1253 595q0 -94 30 -94h439q32 0 32 94t-32 95h-439q-30 -1 -30 -95zM1253 846q0 -94 30 -94h439q32 0 32 94t-32 94h-439q-30 0 -30 -94zM1253 1097q0 -94 30 -95h439q32 0 32 95q0 94 -32 94h-439q-30 0 -30 -94zM1253 1347q0 -94 30 -94h439 q32 0 32 94t-32 94h-439q-30 0 -30 -94z" />
<glyph unicode="&#xf9;" d="M501 2159q0 94 30 94h188q32 0 32 -94t-32 -94h-188q-30 0 -30 94zM751 1908q0 94 30 94h189q32 0 32 -94t-32 -94h-189q-30 0 -30 94zM0 345q0 -94 30 -94h439q32 0 32 94t-32 94h-439q-30 0 -30 -94zM0 595q0 -94 30 -94h439q32 0 32 94t-32 95h-439q-30 -1 -30 -95z M0 846q0 -94 30 -94h439q32 0 32 94t-32 94h-439q-30 0 -30 -94zM0 1097q0 -94 30 -95h439q32 0 32 95q0 94 -32 94h-439q-30 0 -30 -94zM0 1347q0 -94 30 -94h439q32 0 32 94t-32 94h-439q-30 0 -30 -94zM0 1598q0 -94 30 -94h439q32 0 32 94t-32 94h-439q-30 0 -30 -94z M251 94q0 -94 30 -94h1190q33 0 33 94t-33 94h-1190q-30 0 -30 -94zM1253 345q0 -94 30 -94h439q32 0 32 94t-32 94h-439q-30 0 -30 -94zM1253 595q0 -94 30 -94h439q32 0 32 94t-32 95h-439q-30 -1 -30 -95zM1253 846q0 -94 30 -94h439q32 0 32 94t-32 94h-439 q-30 0 -30 -94zM1253 1097q0 -94 30 -95h439q32 0 32 95q0 94 -32 94h-439q-30 0 -30 -94zM1253 1347q0 -94 30 -94h439q32 0 32 94t-32 94h-439q-30 0 -30 -94zM1253 1598q0 -94 30 -94h439q32 0 32 94t-32 94h-439q-30 0 -30 -94z" />
<glyph unicode="&#xfb;" d="M501 1908q0 94 30 94h189q32 0 32 -94t-32 -94h-189q-30 0 -30 94zM752 2159q0 94 30 94h188q32 0 32 -94t-32 -94h-188q-30 0 -30 94zM1002 1908q0 94 30 94h189q32 0 32 -94t-32 -94h-189q-30 0 -30 94zM0 345q0 -94 30 -94h439q32 0 32 94t-32 94h-439q-30 0 -30 -94z M0 595q0 -94 30 -94h439q32 0 32 94t-32 95h-439q-30 -1 -30 -95zM0 846q0 -94 30 -94h439q32 0 32 94t-32 94h-439q-30 0 -30 -94zM0 1097q0 -94 30 -95h439q32 0 32 95q0 94 -32 94h-439q-30 0 -30 -94zM0 1347q0 -94 30 -94h439q32 0 32 94t-32 94h-439q-30 0 -30 -94z M0 1598q0 -94 30 -94h439q32 0 32 94t-32 94h-439q-30 0 -30 -94zM251 94q0 -94 30 -94h1190q33 0 33 94t-33 94h-1190q-30 0 -30 -94zM1253 345q0 -94 30 -94h439q32 0 32 94t-32 94h-439q-30 0 -30 -94zM1253 595q0 -94 30 -94h439q32 0 32 94t-32 95h-439q-30 -1 -30 -95 zM1253 846q0 -94 30 -94h439q32 0 32 94t-32 94h-439q-30 0 -30 -94zM1253 1097q0 -94 30 -95h439q32 0 32 95q0 94 -32 94h-439q-30 0 -30 -94zM1253 1347q0 -94 30 -94h439q32 0 32 94t-32 94h-439q-30 0 -30 -94zM1253 1598q0 -94 30 -94h439q32 0 32 94t-32 94h-439 q-30 0 -30 -94z" />
<glyph unicode="&#x152;" horiz-adv-x="4009" d="M2005 94q0 -94 30 -94h1692q32 0 32 94t-32 94h-1692q-30 0 -30 -94zM2005 345q0 -94 30 -94h439q32 0 32 94t-32 94h-439q-30 0 -30 -94zM2005 595q0 -94 30 -94h439q32 0 32 94t-32 95h-439q-30 -1 -30 -95zM2005 846q0 -94 30 -94h1441q33 0 33 94t-33 94h-1441 q-30 0 -30 -94zM2005 1097q0 -94 30 -95h439q32 0 32 95q0 94 -32 94h-439q-30 0 -30 -94zM2005 1347q0 -94 30 -94h439q32 0 32 94t-32 94h-439q-30 0 -30 -94zM2005 1598q0 -94 30 -94h1692q32 0 32 94t-32 94h-1692q-30 0 -30 -94zM0 345q0 -94 30 -94h439q32 0 32 94 t-32 94h-439q-30 0 -30 -94zM0 595q0 -94 30 -94h439q32 0 32 94t-32 95h-439q-30 -1 -30 -95zM0 846q0 -94 30 -94h439q32 0 32 94t-32 94h-439q-30 0 -30 -94zM0 1097q0 -94 30 -95h439q32 0 32 95q0 94 -32 94h-439q-30 0 -30 -94zM0 1347q0 -94 30 -94h439q32 0 32 94 t-32 94h-439q-30 0 -30 -94zM251 94q0 -94 30 -94h1190q33 0 33 94t-33 94h-1190q-30 0 -30 -94zM251 1598q0 -94 30 -94h1190q33 0 33 94t-33 94h-1190q-30 0 -30 -94zM1253 345q0 -94 30 -94h439q32 0 32 94t-32 94h-439q-30 0 -30 -94zM1253 595q0 -94 30 -94h439 q32 0 32 94t-32 95h-439q-30 -1 -30 -95zM1253 846q0 -94 30 -94h439q32 0 32 94t-32 94h-439q-30 0 -30 -94zM1253 1097q0 -94 30 -95h439q32 0 32 95q0 94 -32 94h-439q-30 0 -30 -94zM1253 1347q0 -94 30 -94h439q32 0 32 94t-32 94h-439q-30 0 -30 -94z" />
<glyph unicode="&#x153;" horiz-adv-x="4009" d="M2005 94q0 -94 30 -94h1692q32 0 32 94t-32 94h-1692q-30 0 -30 -94zM2005 345q0 -94 30 -94h439q32 0 32 94t-32 94h-439q-30 0 -30 -94zM2005 595q0 -94 30 -94h439q32 0 32 94t-32 95h-439q-30 -1 -30 -95zM2005 846q0 -94 30 -94h1441q33 0 33 94t-33 94h-1441 q-30 0 -30 -94zM2005 1097q0 -94 30 -95h439q32 0 32 95q0 94 -32 94h-439q-30 0 -30 -94zM2005 1347q0 -94 30 -94h439q32 0 32 94t-32 94h-439q-30 0 -30 -94zM2005 1598q0 -94 30 -94h1692q32 0 32 94t-32 94h-1692q-30 0 -30 -94zM0 345q0 -94 30 -94h439q32 0 32 94 t-32 94h-439q-30 0 -30 -94zM0 595q0 -94 30 -94h439q32 0 32 94t-32 95h-439q-30 -1 -30 -95zM0 846q0 -94 30 -94h439q32 0 32 94t-32 94h-439q-30 0 -30 -94zM0 1097q0 -94 30 -95h439q32 0 32 95q0 94 -32 94h-439q-30 0 -30 -94zM0 1347q0 -94 30 -94h439q32 0 32 94 t-32 94h-439q-30 0 -30 -94zM251 94q0 -94 30 -94h1190q33 0 33 94t-33 94h-1190q-30 0 -30 -94zM251 1598q0 -94 30 -94h1190q33 0 33 94t-33 94h-1190q-30 0 -30 -94zM1253 345q0 -94 30 -94h439q32 0 32 94t-32 94h-439q-30 0 -30 -94zM1253 595q0 -94 30 -94h439 q32 0 32 94t-32 95h-439q-30 -1 -30 -95zM1253 846q0 -94 30 -94h439q32 0 32 94t-32 94h-439q-30 0 -30 -94zM1253 1097q0 -94 30 -95h439q32 0 32 95q0 94 -32 94h-439q-30 0 -30 -94zM1253 1347q0 -94 30 -94h439q32 0 32 94t-32 94h-439q-30 0 -30 -94z" />
<glyph unicode="&#x2c6;" d="M501 1347q0 94 30 94h189q32 0 32 -94t-32 -94h-189q-30 0 -30 94zM752 1598q0 94 30 94h188q32 0 32 -94t-32 -94h-188q-30 0 -30 94zM1002 1347q0 94 30 94h189q32 0 32 -94t-32 -94h-189q-30 0 -30 94z" />
<glyph unicode="&#x2dc;" d="M-627 217q0 94 30 94h188q32 0 32 -94t-32 -94h-188q-30 0 -30 94zM-377 468q0 94 30 94h439q32 0 32 -94t-32 -94h-439q-30 0 -30 94zM-126 217q0 94 30 94h439q32 0 32 -94t-32 -94h-439q-30 0 -30 94zM375 468q0 94 30 94h188q33 0 33 -94t-33 -94h-188q-30 0 -30 94z " />
<glyph unicode="&#x2000;" horiz-adv-x="1126" />
<glyph unicode="&#x2001;" horiz-adv-x="2253" />
<glyph unicode="&#x2002;" horiz-adv-x="1126" />
<glyph unicode="&#x2003;" horiz-adv-x="2253" />
<glyph unicode="&#x2004;" horiz-adv-x="749" />
<glyph unicode="&#x2005;" horiz-adv-x="563" />
<glyph unicode="&#x2006;" horiz-adv-x="374" />
<glyph unicode="&#x2007;" horiz-adv-x="374" />
<glyph unicode="&#x2008;" horiz-adv-x="280" />
<glyph unicode="&#x2009;" horiz-adv-x="450" />
<glyph unicode="&#x200a;" horiz-adv-x="124" />
<glyph unicode="&#x2010;" d="M251 846q0 -94 30 -94h1190q33 0 33 94t-33 94h-1190q-30 0 -30 -94z" />
<glyph unicode="&#x2011;" d="M251 846q0 -94 30 -94h1190q33 0 33 94t-33 94h-1190q-30 0 -30 -94z" />
<glyph unicode="&#x2012;" d="M251 846q0 -94 30 -94h1190q33 0 33 94t-33 94h-1190q-30 0 -30 -94z" />
<glyph unicode="&#x2013;" horiz-adv-x="1023" d="M203 511v203h617v-203h-617z" />
<glyph unicode="&#x2014;" horiz-adv-x="2048" d="M203 511v203h1642v-203h-1642z" />
<glyph unicode="&#x2018;" d="M752 846q0 -94 30 -94h439q32 0 32 94t-32 94h-439q-30 0 -30 -94zM752 1097q0 -94 30 -95h439q32 0 32 95q0 94 -32 94h-439q-30 0 -30 -94zM752 1347q0 -94 30 -94h188q32 0 32 94t-32 94h-188q-30 0 -30 -94zM1002 1598q0 -94 30 -94h189q32 0 32 94t-32 94h-189 q-30 0 -30 -94z" />
<glyph unicode="&#x2019;" d="M501 846q0 -94 30 -94h189q32 0 32 94t-32 94h-189q-30 0 -30 -94zM501 1347q0 -94 30 -94h439q32 0 32 94t-32 94h-439q-30 0 -30 -94zM501 1598q0 -94 30 -94h439q32 0 32 94t-32 94h-439q-30 0 -30 -94zM752 1097q0 -94 30 -95h188q32 0 32 95q0 94 -32 94h-188 q-30 0 -30 -94z" />
<glyph unicode="&#x201c;" d="M251 846q0 -94 30 -94h439q32 0 32 94t-32 94h-439q-30 0 -30 -94zM251 1097q0 -94 30 -95h439q32 0 32 95q0 94 -32 94h-439q-30 0 -30 -94zM251 1347q0 -94 30 -94h188q32 0 32 94t-32 94h-188q-30 0 -30 -94zM501 1598q0 -94 30 -94h189q32 0 32 94t-32 94h-189 q-30 0 -30 -94zM1002 846q0 -94 30 -94h439q33 0 33 94t-33 94h-439q-30 0 -30 -94zM1002 1097q0 -94 30 -95h439q33 0 33 95q0 94 -33 94h-439q-30 0 -30 -94zM1002 1347q0 -94 30 -94h189q32 0 32 94t-32 94h-189q-30 0 -30 -94zM1253 1598q0 -94 30 -94h188q33 0 33 94 t-33 94h-188q-30 0 -30 -94z" />
<glyph unicode="&#x201d;" d="M251 846q0 -94 30 -94h188q32 0 32 94t-32 94h-188q-30 0 -30 -94zM251 1347q0 -94 30 -94h439q32 0 32 94t-32 94h-439q-30 0 -30 -94zM251 1598q0 -94 30 -94h439q32 0 32 94t-32 94h-439q-30 0 -30 -94zM501 1097q0 -94 30 -95h189q32 0 32 95q0 94 -32 94h-189 q-30 0 -30 -94zM1002 846q0 -94 30 -94h189q32 0 32 94t-32 94h-189q-30 0 -30 -94zM1002 1347q0 -94 30 -94h439q33 0 33 94t-33 94h-439q-30 0 -30 -94zM1002 1598q0 -94 30 -94h439q33 0 33 94t-33 94h-439q-30 0 -30 -94zM1253 1097q0 -94 30 -95h188q33 0 33 95 q0 94 -33 94h-188q-30 0 -30 -94z" />
<glyph unicode="&#x2022;" d="M501 595q0 -94 30 -94h439q32 0 32 94t-32 95h-439q-30 -1 -30 -95zM501 846q0 -94 30 -94h439q32 0 32 94t-32 94h-439q-30 0 -30 -94z" />
<glyph unicode="&#x2026;" horiz-adv-x="6013" d="M4260 94q0 -94 30 -94h439q32 0 32 94t-32 94h-439q-30 0 -30 -94zM4260 345q0 -94 30 -94h439q32 0 32 94t-32 94h-439q-30 0 -30 -94zM2256 94q0 -94 30 -94h439q32 0 32 94t-32 94h-439q-30 0 -30 -94zM2256 345q0 -94 30 -94h439q32 0 32 94t-32 94h-439 q-30 0 -30 -94zM251 94q0 -94 30 -94h439q32 0 32 94t-32 94h-439q-30 0 -30 -94zM251 345q0 -94 30 -94h439q32 0 32 94t-32 94h-439q-30 0 -30 -94z" />
<glyph unicode="&#x202f;" horiz-adv-x="450" />
<glyph unicode="&#x2039;" d="M251 846q0 -94 30 -94h439q32 0 32 94t-32 94h-439q-30 0 -30 -94zM501 595q0 -94 30 -94h439q32 0 32 94t-32 95h-439q-30 -1 -30 -95zM501 1097q0 -94 30 -95h439q32 0 32 95q0 94 -32 94h-439q-30 0 -30 -94zM752 345q0 -94 30 -94h439q32 0 32 94t-32 94h-439 q-30 0 -30 -94zM752 1347q0 -94 30 -94h439q32 0 32 94t-32 94h-439q-30 0 -30 -94z" />
<glyph unicode="&#x203a;" d="M501 345q0 -94 30 -94h439q32 0 32 94t-32 94h-439q-30 0 -30 -94zM501 1347q0 -94 30 -94h439q32 0 32 94t-32 94h-439q-30 0 -30 -94zM752 595q0 -94 30 -94h439q32 0 32 94t-32 95h-439q-30 -1 -30 -95zM752 1097q0 -94 30 -95h439q32 0 32 95q0 94 -32 94h-439 q-30 0 -30 -94zM1002 846q0 -94 30 -94h439q33 0 33 94t-33 94h-439q-30 0 -30 -94z" />
<glyph unicode="&#x205f;" horiz-adv-x="563" />
<glyph unicode="&#x2122;" d="M0 1598q0 -94 30 -94h690q32 0 32 94t-32 94h-690q-30 0 -30 -94zM251 846q0 -94 30 -94h188q32 0 32 94t-32 94h-188q-30 0 -30 -94zM251 1097q0 -94 30 -95h188q32 0 32 95q0 94 -32 94h-188q-30 0 -30 -94zM251 1347q0 -94 30 -94h188q32 0 32 94t-32 94h-188 q-30 0 -30 -94zM1002 846q0 -94 30 -94h189q32 0 32 94t-32 94h-189q-30 0 -30 -94zM1002 1097q0 -94 30 -95h189q32 0 32 95q0 94 -32 94h-189q-30 0 -30 -94zM1002 1347q0 -94 30 -94h690q32 0 32 94t-32 94h-690q-30 0 -30 -94zM1002 1598q0 -94 30 -94h189q32 0 32 94 t-32 94h-189q-30 0 -30 -94zM1504 846q0 -94 30 -94h188q32 0 32 94t-32 94h-188q-30 0 -30 -94zM1504 1097q0 -94 30 -95h188q32 0 32 95q0 94 -32 94h-188q-30 0 -30 -94zM1504 1598q0 -94 30 -94h188q32 0 32 94t-32 94h-188q-30 0 -30 -94z" />
<glyph unicode="&#xe000;" horiz-adv-x="1690" d="M0 1690h1690v-1690h-1690v1690z" />
<glyph unicode="&#xfb01;" horiz-adv-x="4009" d="M2256 94q0 -94 30 -94h1441q32 0 32 94t-32 94h-1441q-30 0 -30 -94zM2256 1598q0 -94 30 -94h1441q32 0 32 94t-32 94h-1441q-30 0 -30 -94zM2757 345q0 -94 30 -94h439q32 0 32 94t-32 94h-439q-30 0 -30 -94zM2757 595q0 -94 30 -94h439q32 0 32 94t-32 95h-439 q-30 -1 -30 -95zM2757 846q0 -94 30 -94h439q32 0 32 94t-32 94h-439q-30 0 -30 -94zM2757 1097q0 -94 30 -95h439q32 0 32 95q0 94 -32 94h-439q-30 0 -30 -94zM2757 1347q0 -94 30 -94h439q32 0 32 94t-32 94h-439q-30 0 -30 -94zM0 94q0 -94 30 -94h439q32 0 32 94 t-32 94h-439q-30 0 -30 -94zM0 345q0 -94 30 -94h439q32 0 32 94t-32 94h-439q-30 0 -30 -94zM0 595q0 -94 30 -94h439q32 0 32 94t-32 95h-439q-30 -1 -30 -95zM0 846q0 -94 30 -94h1441q33 0 33 94t-33 94h-1441q-30 0 -30 -94zM0 1097q0 -94 30 -95h439q32 0 32 95 q0 94 -32 94h-439q-30 0 -30 -94zM0 1347q0 -94 30 -94h439q32 0 32 94t-32 94h-439q-30 0 -30 -94zM0 1598q0 -94 30 -94h1692q32 0 32 94t-32 94h-1692q-30 0 -30 -94z" />
<glyph unicode="&#xfb02;" horiz-adv-x="4009" d="M2005 94q0 -94 30 -94h1692q32 0 32 94t-32 94h-1692q-30 0 -30 -94zM2005 345q0 -94 30 -94h439q32 0 32 94t-32 94h-439q-30 0 -30 -94zM2005 595q0 -94 30 -94h439q32 0 32 94t-32 95h-439q-30 -1 -30 -95zM2005 846q0 -94 30 -94h439q32 0 32 94t-32 94h-439 q-30 0 -30 -94zM2005 1097q0 -94 30 -95h439q32 0 32 95q0 94 -32 94h-439q-30 0 -30 -94zM2005 1347q0 -94 30 -94h439q32 0 32 94t-32 94h-439q-30 0 -30 -94zM2005 1598q0 -94 30 -94h439q32 0 32 94t-32 94h-439q-30 0 -30 -94zM0 94q0 -94 30 -94h439q32 0 32 94 t-32 94h-439q-30 0 -30 -94zM0 345q0 -94 30 -94h439q32 0 32 94t-32 94h-439q-30 0 -30 -94zM0 595q0 -94 30 -94h439q32 0 32 94t-32 95h-439q-30 -1 -30 -95zM0 846q0 -94 30 -94h1441q33 0 33 94t-33 94h-1441q-30 0 -30 -94zM0 1097q0 -94 30 -95h439q32 0 32 95 q0 94 -32 94h-439q-30 0 -30 -94zM0 1347q0 -94 30 -94h439q32 0 32 94t-32 94h-439q-30 0 -30 -94zM0 1598q0 -94 30 -94h1692q32 0 32 94t-32 94h-1692q-30 0 -30 -94z" />
<glyph unicode="&#xfb03;" horiz-adv-x="6013" d="M4260 94q0 -94 30 -94h1441q32 0 32 94t-32 94h-1441q-30 0 -30 -94zM4260 1598q0 -94 30 -94h1441q32 0 32 94t-32 94h-1441q-30 0 -30 -94zM4761 345q0 -94 30 -94h439q32 0 32 94t-32 94h-439q-30 0 -30 -94zM4761 595q0 -94 30 -94h439q32 0 32 94t-32 95h-439 q-30 -1 -30 -95zM4761 846q0 -94 30 -94h439q32 0 32 94t-32 94h-439q-30 0 -30 -94zM4761 1097q0 -94 30 -95h439q32 0 32 95q0 94 -32 94h-439q-30 0 -30 -94zM4761 1347q0 -94 30 -94h439q32 0 32 94t-32 94h-439q-30 0 -30 -94zM2005 94q0 -94 30 -94h439q32 0 32 94 t-32 94h-439q-30 0 -30 -94zM2005 345q0 -94 30 -94h439q32 0 32 94t-32 94h-439q-30 0 -30 -94zM2005 595q0 -94 30 -94h439q32 0 32 94t-32 95h-439q-30 -1 -30 -95zM2005 846q0 -94 30 -94h1441q33 0 33 94t-33 94h-1441q-30 0 -30 -94zM2005 1097q0 -94 30 -95h439 q32 0 32 95q0 94 -32 94h-439q-30 0 -30 -94zM2005 1347q0 -94 30 -94h439q32 0 32 94t-32 94h-439q-30 0 -30 -94zM2005 1598q0 -94 30 -94h1692q32 0 32 94t-32 94h-1692q-30 0 -30 -94zM0 94q0 -94 30 -94h439q32 0 32 94t-32 94h-439q-30 0 -30 -94zM0 345q0 -94 30 -94 h439q32 0 32 94t-32 94h-439q-30 0 -30 -94zM0 595q0 -94 30 -94h439q32 0 32 94t-32 95h-439q-30 -1 -30 -95zM0 846q0 -94 30 -94h1441q33 0 33 94t-33 94h-1441q-30 0 -30 -94zM0 1097q0 -94 30 -95h439q32 0 32 95q0 94 -32 94h-439q-30 0 -30 -94zM0 1347q0 -94 30 -94 h439q32 0 32 94t-32 94h-439q-30 0 -30 -94zM0 1598q0 -94 30 -94h1692q32 0 32 94t-32 94h-1692q-30 0 -30 -94z" />
<glyph unicode="&#xfb04;" horiz-adv-x="6013" d="M4009 94q0 -94 30 -94h1692q32 0 32 94t-32 94h-1692q-30 0 -30 -94zM4009 345q0 -94 30 -94h439q32 0 32 94t-32 94h-439q-30 0 -30 -94zM4009 595q0 -94 30 -94h439q32 0 32 94t-32 95h-439q-30 -1 -30 -95zM4009 846q0 -94 30 -94h439q32 0 32 94t-32 94h-439 q-30 0 -30 -94zM4009 1097q0 -94 30 -95h439q32 0 32 95q0 94 -32 94h-439q-30 0 -30 -94zM4009 1347q0 -94 30 -94h439q32 0 32 94t-32 94h-439q-30 0 -30 -94zM4009 1598q0 -94 30 -94h439q32 0 32 94t-32 94h-439q-30 0 -30 -94zM2005 94q0 -94 30 -94h439q32 0 32 94 t-32 94h-439q-30 0 -30 -94zM2005 345q0 -94 30 -94h439q32 0 32 94t-32 94h-439q-30 0 -30 -94zM2005 595q0 -94 30 -94h439q32 0 32 94t-32 95h-439q-30 -1 -30 -95zM2005 846q0 -94 30 -94h1441q33 0 33 94t-33 94h-1441q-30 0 -30 -94zM2005 1097q0 -94 30 -95h439 q32 0 32 95q0 94 -32 94h-439q-30 0 -30 -94zM2005 1347q0 -94 30 -94h439q32 0 32 94t-32 94h-439q-30 0 -30 -94zM2005 1598q0 -94 30 -94h1692q32 0 32 94t-32 94h-1692q-30 0 -30 -94zM0 94q0 -94 30 -94h439q32 0 32 94t-32 94h-439q-30 0 -30 -94zM0 345q0 -94 30 -94 h439q32 0 32 94t-32 94h-439q-30 0 -30 -94zM0 595q0 -94 30 -94h439q32 0 32 94t-32 95h-439q-30 -1 -30 -95zM0 846q0 -94 30 -94h1441q33 0 33 94t-33 94h-1441q-30 0 -30 -94zM0 1097q0 -94 30 -95h439q32 0 32 95q0 94 -32 94h-439q-30 0 -30 -94zM0 1347q0 -94 30 -94 h439q32 0 32 94t-32 94h-439q-30 0 -30 -94zM0 1598q0 -94 30 -94h1692q32 0 32 94t-32 94h-1692q-30 0 -30 -94z" />
</font>
</defs>
</svg>
